<?xml version="1.0" standalone="no"?>
<!DOCTYPE svg PUBLIC "-//W3C//DTD SVG 1.1//EN" "http://www.w3.org/Graphics/SVG/1.1/DTD/svg11.dtd" >
<svg xmlns="http://www.w3.org/2000/svg" xmlns:xlink="http://www.w3.org/1999/xlink" version="1.1">
<metadata></metadata>
<defs>
<font id="fantaisieartistiquemedium" horiz-adv-x="1040" >
<font-face units-per-em="2048" ascent="1536" descent="-512" />
<missing-glyph horiz-adv-x="542" />
<glyph unicode="&#xfb01;" horiz-adv-x="1075" d="M137 963v47q29 12 55.5 28.5t43 29.5t38 37.5t30.5 36t29.5 42t26.5 39.5q43 61 130.5 98t166.5 39q37 0 134.5 -52.5t97.5 -103.5q0 -8 -8 -18q20 4 26 4q88 0 88 -76q0 -45 -45 -89t-90 -44q-37 0 -62.5 20.5t-27.5 53.5q-59 -63 -63 -64q-18 0 -31 23q12 25 15 61.5 t-2 75.5t-31.5 66.5t-71.5 27.5q-66 0 -93.5 -48t-27.5 -99q0 -47 14.5 -83t28.5 -54.5t14 -24.5q0 -8 -16.5 -33.5t-18.5 -34.5q-6 -14 -16 -92q0 -25 12 -37h17q29 0 80 55.5t53 57.5q29 -18 29 -41q0 -8 -11.5 -45t-13.5 -49q-6 -29 -9 -87.5t-5 -72.5h-27q-49 49 -94 49 q-23 0 -23 -223v-604h-55q-20 76 -91 134t-143 77q-20 14 -20 24q0 29 70 70q57 35 55 309v27q0 4 1 41t0 53t-5 43t-15.5 38t-29.5 11q-6 0 -26.5 -3t-29.5 -3q-35 0 -34 47q0 37 14 50.5t32.5 11.5t46 2t48.5 20q2 76 -41 147.5t-119 84.5zM711 14l2 37q43 10 70.5 36 t37.5 68t12.5 69.5t2.5 74.5v14q0 20 1 67.5t1 53.5q0 59 -17 228q-2 27 -50 55t-52 33q6 25 127 70.5t141 45.5q33 0 33 -96v-571q0 -51 24.5 -84t96.5 -72v-29l-2 -4q-2 -4 -6.5 -7t-10.5 -3h-393q-8 0 -11 2t-4 6t-3 6z" />
<glyph unicode="&#xfb02;" horiz-adv-x="894" d="M137 963v47q29 12 55.5 28.5t43 29.5t38 37.5t30.5 36t29.5 42t26.5 39.5q43 61 130.5 98t166.5 39q23 0 91.5 -31t107.5 -67q20 14 41 43q4 -2 12.5 -9.5t10.5 -11.5v-1284h-316v35q88 31 113.5 81t25.5 136l5 639q0 59 -37 102q-4 0 -8.5 2t-15.5 8.5t-15 14.5t0 22.5 t20 32.5q-4 31 0 49q-8 123 -106 123q-66 0 -93.5 -48t-27.5 -99q0 -47 14.5 -83t28.5 -54.5t14 -24.5q0 -8 -16.5 -33.5t-18.5 -34.5q-6 -14 -16 -92q0 -25 12 -37h17q29 0 80 55.5t53 57.5q29 -18 29 -41q0 -8 -11.5 -45t-13.5 -49q-6 -29 -9 -87.5t-5 -72.5h-27 q-49 49 -94 49q-23 0 -23 -223v-604h-55q-20 76 -91 134t-143 77q-20 14 -20 24q0 29 70 70q57 35 55 309v27q0 4 1 41t0 53t-5 43t-15.5 38t-29.5 11q-6 0 -26.5 -3t-29.5 -3q-35 0 -34 47q0 37 14 50.5t32.5 11.5t46 2t48.5 20q2 76 -41 147.5t-119 84.5z" />
<glyph horiz-adv-x="0" />
<glyph unicode="&#xd;" horiz-adv-x="681" />
<glyph unicode=" "  horiz-adv-x="542" />
<glyph unicode="&#x09;" horiz-adv-x="542" />
<glyph unicode="&#xa0;" horiz-adv-x="542" />
<glyph unicode="!" horiz-adv-x="495" d="M35 1339q2 2 3 6.5t4 6.5t11 2h389q6 0 11.5 -3t9.5 -8l2 -4v-28q-68 -37 -98.5 -114t-30.5 -157v-51v-89v-113.5t-2 -130t-6 -129t-11.5 -123t-15.5 -100.5t-22.5 -70.5t-31 -24.5t-30.5 24.5t-22.5 70.5t-15.5 100.5t-11 123t-6 129t-2 130v113.5v89v51v15 q0 47 -2 74.5t-12.5 69.5t-38 67.5t-70.5 36.5zM121 18q0 51 46 88t93 37q88 1 88 -75q0 -45 -45 -89.5t-90 -44.5q-39 0 -65.5 24t-26.5 60z" />
<glyph unicode="&#x22;" horiz-adv-x="802" d="M278 956l92 166h142l-166 -166h-68zM483 956l92 166h142l-166 -166h-68z" />
<glyph unicode="#" horiz-adv-x="1019" d="M0 436v62h231l54 366h-197v62h207l53 354h62l-54 -354h285l53 354h62l-54 -354h238v-62h-246l-55 -366h213v-62h-223l-51 -348h-62l51 348h-284l-52 -348h-61l51 348h-221zM293 498h285l55 366h-287z" />
<glyph unicode="$" horiz-adv-x="1013" d="M47 995q2 143 111.5 236.5t271.5 116.5v188h72v-182q29 0 60.5 -7.5t51 -13.5t58.5 -20.5t59 -20.5q10 -4 40 -14l48 -16v-312h-8q-10 51 -37 109q-111 229 -272 233v-2v-2v-2v-2v-2v-2v-2v-2v-2v-2v-2v-2v-2v-2v-2v-2v-3v-2v-2v-2v-2v-2v-2v-2v-2v-2v-2v-2v-2v-2v-2v-2 v-2v-2v-2v-2v-2v-3v-2v-2v-2v-4v-2v-2v-2v-2v-2v-2v-2v-2v-4v-2v-2v-2v-2v-2v-5v-2v-2v-2v-2v-4v-2v-2v-2v-4v-2v-2v-4v-2v-2v-2v-5v-2v-2v-4v-2v-4v-2v-2v-4v-2v-2v-4v-2v-4v-2v-5v-2v-2v-4v-2v-4v-2v-4v-2v-4v-2v-4v-2v-4v-3v-4v-2v-4v-2v-4v-4v-2v-4v-2v-4v-2v-4v-5v-2 v-4v-2v-4v-4v-2v-4v-4v-2v-4v-4v-2v-5v-4v-2v-4v-4v-2v-4v-4v-4v-2v-4v-4v-5v-2v-4v-4v-4v-2v-4v-4v-4v-4v-2v-4v-5v-4v-4v-2v-4v-4v-4v-4v-4v-19q59 -29 84.5 -41t81 -42.5t81 -52t65.5 -59.5t58.5 -76t33 -89t14.5 -111q0 -145 -122 -242.5t-296 -119.5v-236h-72v232 q-33 0 -68.5 7t-58 15t-66.5 23.5t-67 23.5q-41 12 -92 35v309h6q12 -59 35 -106q121 -250 311 -256v573q-88 43 -115.5 57.5t-96 56.5t-95.5 73.5t-52.5 85t-23.5 112.5zM221 1100q-2 -82 52.5 -137.5t156.5 -104.5v430q-88 -14 -147.5 -62t-61.5 -126zM502 43 q109 20 178.5 87t67.5 165q-2 90 -65.5 152.5t-180.5 125.5v-530z" />
<glyph unicode="%" horiz-adv-x="1609" d="M104.5 793q-18.5 90 6 189t75.5 189q57 100 172 155.5t217 43.5q23 -2 80.5 -21.5t136 -34t177.5 -14.5q100 0 174 37t164 117h123l-1065 -1444l-134 -10l912 1235q-100 -31 -180 -35t-115 3t-113 30q39 -78 12.5 -212t-124.5 -230q-240 -236 -430 -127q-70 39 -88.5 129 zM244 877.5q-14 -103.5 39 -148.5q59 -51 170 78q115 133 155 293q43 168 -57 209q-61 25 -134 -46t-116 -176.5t-57 -209zM802.5 173q-16.5 93 12.5 195.5t88 188.5q88 127 248 174t248 -59q70 -100 42 -245.5t-132 -250.5q-242 -240 -420 -135q-70 39 -86.5 132zM939 215 q1 -78 40 -111q57 -51 168 76q115 131 156 291q45 172 -56 211q-49 20 -106.5 -22t-101.5 -119.5t-72.5 -162.5t-27.5 -163z" />
<glyph unicode="&#x26;" horiz-adv-x="1437" d="M102 260q-4 133 76 238.5t225 214.5l-49 71q-2 4 -8 13q-29 43 -42 65.5t-24.5 58t-11.5 76.5q2 125 94.5 211t217.5 82q121 -4 200.5 -57t77.5 -170q0 -27 -8 -51.5t-18.5 -44t-34 -42t-36.5 -34.5t-49 -33.5t-51.5 -31t-58.5 -33t-57 -31.5l315 -467q139 162 107 295 q-20 76 -117 76h-64v45h500v-45h-39q-25 0 -46 -11.5t-29.5 -18.5t-33 -39t-28.5 -36q-45 -53 -123 -156.5t-106 -138.5l71 -102q33 -47 76 -78t78 -27q18 2 59 31q20 12 45 37l17 -18q-27 -41 -62 -66q-70 -53 -141 -61q-127 -10 -227 153l-13 21q-180 -176 -399 -168 q-115 2 -197 83t-86 189zM211 315q2 -82 100.5 -153.5t186.5 -73.5q121 1 258 107l-334 491q-213 -143 -211 -371zM399 1112q-27 -94 45 -201l76 -112q113 82 173.5 148.5t60.5 139.5q0 84 -49.5 128.5t-124.5 46.5q-66 2 -113 -40t-68 -110z" />
<glyph unicode="'" horiz-adv-x="802" d="M483 956l92 166h142l-166 -166h-68z" />
<glyph unicode="(" horiz-adv-x="866" d="M106 434q0 242 170 491t342 337q6 2 17.5 10t21 14t17.5 6q6 0 12 -6t12.5 -15.5t12.5 -13.5q-88 -86 -147.5 -152.5t-126 -163.5t-99.5 -206.5t-33 -228.5v-141q0 -156 63.5 -304.5t139.5 -241.5t192 -206q-6 -4 -12 -13.5t-12 -15.5t-12 -6q-8 0 -17.5 6t-21 14.5 t-17.5 10.5q-502 256 -502 825z" />
<glyph unicode=")" horiz-adv-x="866" d="M117 1257q6 4 12 13.5t12 15.5t13 6q8 0 17 -6t20.5 -14t17.5 -10q172 -88 342 -337t170 -491q0 -569 -502 -825q-6 -2 -17.5 -10.5t-20.5 -14.5t-17 -6q-6 0 -12.5 6t-12.5 15.5t-12 13.5q117 113 192.5 206t139 241.5t63.5 304.5v141q0 119 -32.5 228.5t-99 206.5 t-126 163.5t-147.5 152.5z" />
<glyph unicode="*" horiz-adv-x="946" d="M115 463l252 141l-252 148l43 79l264 -153v268h80v-266l268 151l43 -79l-262 -152l63 -37q61 -37 125 -74l64 -36l-43 -78l-258 149v-264h-80v266l-264 -151z" />
<glyph unicode="+" horiz-adv-x="724" d="M68 532v68h251v246h68v-246h252v-68h-252v-256h-68v256h-251z" />
<glyph unicode="," horiz-adv-x="495" d="M100 80q0 51 46.5 88t91.5 37q59 0 87.5 -36t28.5 -79q0 -16 -3 -45t-17.5 -75t-37 -84t-66.5 -65.5t-101 -27.5q105 104 115 215q-14 -12 -51 -12q-39 0 -66 23.5t-27 60.5z" />
<glyph unicode="-" horiz-adv-x="690" d="M0 322l61 88h428l-59 -88h-430z" />
<glyph unicode="." horiz-adv-x="495" d="M100 80q0 51 46.5 88t93.5 37q88 0 88 -76q0 -45 -45 -89t-90 -44q-39 0 -66 23.5t-27 60.5z" />
<glyph unicode="/" horiz-adv-x="1097" d="M174 -41l676 1301h92l-676 -1301h-92z" />
<glyph unicode="0" d="M141 582q0 168 71 365.5t208 295.5q6 4 18.5 15.5t21.5 19.5t17 8q6 0 12.5 -8t14.5 -21.5t14 -19.5q-125 -160 -154.5 -237.5t-29.5 -211.5q0 -92 23.5 -202.5t68.5 -214t117.5 -173t158.5 -69.5q113 0 179.5 107.5t66.5 250.5q0 111 -32.5 244t-107.5 244.5t-171 111.5 q-123 0 -186 -161h-29q-27 45 -29 49q70 160 161 245t183 85q154 0 273.5 -188.5t119.5 -399.5q-2 -330 -144 -540t-365 -210q-188 0 -334 172t-146 443zM561 629q0 57 33 92t74 35q27 0 50 -52t23 -79q0 -49 -27.5 -95.5t-62.5 -46.5q-39 0 -64.5 53.5t-25.5 92.5z" />
<glyph unicode="1" horiz-adv-x="495" d="M121 14l2 37q43 10 70.5 36t38 68t12.5 69.5t2 74.5v14q0 20 1 292t1 280q0 59 -17 227q-2 27 -50 55.5t-52 32.5q6 25 127 71t141 46q33 0 33 -96v-1022q0 -51 24.5 -84t96.5 -72v-29l-2 -4q-2 -4 -6 -7t-11 -3h-393q-8 0 -11 2t-4 6t-3 6z" />
<glyph unicode="2" d="M39 45q29 27 122 110t166.5 153.5t157.5 163.5t130.5 185.5t46.5 171.5q0 72 -31 154t-99.5 148.5t-156.5 66.5q-57 0 -96 -21.5t-53.5 -46t-30.5 -65.5q-2 -8 1 -29.5t-1 -27.5q-31 -61 -68 -78t-50.5 15t1.5 95q18 55 53 106.5t117 96.5t190 45q154 0 263.5 -103.5 t111.5 -299.5q0 -57 -9 -111.5t-34 -105t-45 -90t-63.5 -84.5t-67 -72t-75.5 -68t-69.5 -55t-71.5 -52t-59 -42q111 45 273 -53q92 -55 250 -29q23 2 83 38t79 56l12 -39q-184 -166 -254 -172q-164 -10 -227 27q-180 104 -269 92q-31 -4 -110.5 -50t-104.5 -69z" />
<glyph unicode="3" horiz-adv-x="921" d="M74 240q2 47 23.5 65.5t45 -2t29.5 -70.5q0 -6 -8 -18t-6 -20q-2 -41 45 -82t116 -41q90 0 148.5 58t77 131t14.5 149q-4 86 -72.5 170t-169.5 106v102q94 14 132.5 56.5t48.5 177.5q14 193 -179 192q-47 0 -77.5 -17t-42 -36.5t-23.5 -52.5q-4 -8 -1 -23.5t1 -21.5 q-25 -49 -54.5 -62.5t-40.5 12t1 77.5q23 74 93.5 136t195.5 62t186 -53t61 -209q0 -49 -7 -89t-16 -63.5t-28.5 -48t-29 -34t-35 -30t-31.5 -24.5q119 -59 164 -98q94 -90 96 -240q2 -156 -118.5 -274.5t-241.5 -118.5q-133 0 -217 72t-80 162z" />
<glyph unicode="4" horiz-adv-x="1105" d="M63.5 371.5q-10.5 13.5 14.5 40.5q61 82 217 312t277.5 411.5t127.5 181.5q33 0 33 -96v-711h6h6h9h6h6h6h8h6h7h18q47 0 71.5 19.5t59.5 82.5h25l4 -2q2 0 5 -3t3 -9v-336q0 -6 -12 -14l-31 2q-8 33 -20.5 53.5t-21.5 30.5t-33.5 15t-33 5h-45.5h-49v-155 q0 -51 24.5 -84t96.5 -72v-29l-2 -4q-2 -4 -6 -7t-10 -3h-394q-8 0 -11 2t-4 6t-3 6l2 37q37 8 63.5 31.5t38 46.5t18.5 65t7 60v59v41h-457q-6 0 -14 2t-18.5 15.5zM305 512q4 -2 25 -2h223q0 66 -1 177.5t-1 135.5v33q-2 0 -19 -22q-27 -37 -99.5 -140.5t-102.5 -140.5 q-33 -39 -25 -41z" />
<glyph unicode="5" d="M74 311q-4 76 25.5 100.5t61.5 -6t32 -90.5q0 -6 -18.5 -23.5t-16.5 -25.5q14 -80 102 -137t182 -57q133 0 214 114.5t77 233.5q-4 199 -158.5 303.5t-441.5 69.5l23 493q350 0 520 49q10 2 29.5 10.5t34 13.5t20.5 5q16 0 26 -14q8 -16 17.5 -47t13.5 -41 q23 -51 66 -128t72.5 -129.5t29.5 -56.5q0 -12 -20 -33h-23q-55 74 -266 158t-322 84q-10 0 -17 -1t-10 -6t-4 -8t-3.5 -15.5t-2.5 -18.5l-32 -186q94 14 200.5 -6.5t208 -75t170 -164t72.5 -256.5q4 -193 -125 -299.5t-317 -114.5q-182 -8 -297 73t-123 232z" />
<glyph unicode="6" d="M154 471q0 569 501 825q6 2 17.5 10.5t20.5 14.5t18 6q6 0 12 -6t12 -15.5t13 -13.5q-88 -86 -147.5 -152.5t-126 -163.5t-99.5 -207t-33 -228q0 -90 39 -192.5t125 -185.5t196.5 -83t175 74.5t64.5 175.5q0 78 -31.5 171t-105.5 171t-166 78q-123 0 -186 -113l-27 2 q-20 20 -27 31q68 111 157 171t177 60q150 0 267.5 -131t117.5 -278q0 -231 -139 -378t-356 -147q-195 0 -332 129t-137 375zM563 430q0 41 31 64.5t72 23.5q27 0 50 -37t23 -55q0 -33 -26.5 -64.5t-61.5 -31.5q-39 2 -63.5 37.5t-24.5 62.5z" />
<glyph unicode="7" horiz-adv-x="1388" d="M164 918q0 4 29.5 56t72.5 129t66 128q4 10 13 41t17 47q10 14 27 14q6 0 20.5 -5t34 -13t29.5 -10q170 -49 520 -50l-354 -1103q0 -45 47 -72t47 -41q0 -12 -11 -25.5t-30 -13.5l-344 2q0 20 -6 29q12 23 27 32q4 2 29.5 11.5t33.5 15.5l326 997q0 31 -5 40.5t-32 9.5 q-104 0 -279.5 -87t-234.5 -165h-23q-20 20 -20 33z" />
<glyph unicode="8" d="M100 383q0 152 66.5 248t144.5 125q-8 6 -43 28.5t-46 37t-25.5 58.5t-14.5 109q0 145 81 219t222 74q123 0 205 -74.5t82 -218.5q0 -66 -14.5 -109.5t-25.5 -58t-46 -37t-43 -28.5q86 -39 148.5 -132.5t62.5 -240.5q0 -170 -112.5 -275.5t-264 -105.5t-264.5 105.5 t-113 275.5zM274.5 287q8.5 -90 61.5 -152.5t139 -62.5q68 0 117 33.5t71.5 87t29.5 119t-8 131t-41 118.5t-70 87t-95 34q-72 0 -126 -62.5t-70.5 -152.5t-8 -180zM312 945.5q7 -62.5 50.5 -105.5t108.5 -43q76 0 123 43t53 105.5t-8 123.5t-59 104.5t-104.5 43.5 t-102.5 -43.5t-55.5 -104.5t-5.5 -123.5zM399 1014q0 41 31 64.5t72 23.5q27 0 50 -37t23 -55q0 -33 -26.5 -65t-61.5 -32q-39 2 -63.5 38t-24.5 63z" />
<glyph unicode="9" d="M117 416q0 231 139 377.5t356 144.5q195 0 332 -129t137 -375q0 -569 -501 -825q-6 -2 -17.5 -10.5t-21 -14.5t-17.5 -6q-6 0 -12 6t-12 15.5t-13 13.5q88 86 147.5 152.5t126 164t99.5 207t33 228.5q0 90 -39 192t-125 185t-196.5 83t-175 -74.5t-64.5 -175.5 q0 -78 31.5 -171t105.5 -170.5t166 -77.5q123 0 186 112h29q20 -20 25 -32q-68 -111 -157 -171.5t-177 -60.5q-150 0 -267.5 132.5t-117.5 279.5zM496 479q0 35 26.5 67t61.5 32q39 0 63.5 -37t24.5 -66q0 -41 -31 -64.5t-72 -23.5q-27 0 -50 37t-23 55z" />
<glyph unicode=":" horiz-adv-x="495" d="M100 80q0 51 46.5 88t93.5 37q88 0 88 -76q0 -45 -45 -89t-90 -44q-39 0 -66 23.5t-27 60.5zM100 555q0 51 46.5 88t93.5 37q88 0 88 -76q0 -45 -45 -89t-90 -44q-39 0 -66 23.5t-27 60.5z" />
<glyph unicode=";" horiz-adv-x="495" d="M100 80q0 51 46.5 88t91.5 37q59 0 87.5 -36t28.5 -79q0 -16 -3 -45t-17.5 -75t-37 -84t-66.5 -65.5t-101 -27.5q105 104 115 215q-14 -12 -51 -12q-39 0 -66 23.5t-27 60.5zM102 555q0 51 46.5 88t93.5 37q88 0 88 -76q0 -45 -45 -89t-90 -44q-39 0 -66 23.5t-27 60.5z " />
<glyph unicode="&#x3c;" horiz-adv-x="1210" d="M88 537v61l848 338v-98l-674 -260v-25l674 -274v-101z" />
<glyph unicode="=" horiz-adv-x="774" d="M68 436v68h571v-68h-571zM68 657v68h571v-68h-571z" />
<glyph unicode="&#x3e;" horiz-adv-x="1200" d="M164 178v101l676 274v25l-676 260v98l850 -338v-61z" />
<glyph unicode="?" d="M84 1108q8 152 123 232.5t297 72.5q199 -8 339 -117.5t134 -326.5q-8 -236 -127 -364t-318 -107q-123 12 -204.5 -19.5t-89.5 -103.5q-12 -78 49 -132.5t151 -25.5q12 4 24.5 4t17.5 4t16 19l6 -45l-16.5 -16.5l-13.5 -13.5l-9 -9t-10 -7t-9.5 -3.5t-14.5 -2.5t-17.5 -1 t-24.5 -1q-90 -2 -154.5 73t-52.5 165q14 92 90 158.5t201 68.5q170 4 233.5 106.5t59.5 293.5q-2 117 -90 227.5t-221 110.5q-94 0 -182.5 -57.5t-102.5 -137.5q-2 -8 16.5 -25.5t18.5 -23.5q0 -59 -32 -90t-61.5 -6.5t-25.5 100.5zM264 -104q0 51 46 87.5t93 36.5 q89 1 89 -75q0 -45 -45.5 -89t-90.5 -44q-39 0 -65.5 23.5t-26.5 60.5zM399 1014q0 41 31 64.5t72 23.5q27 0 50 -37t23 -55q0 -33 -26.5 -65t-61.5 -32q-39 2 -63.5 38t-24.5 63z" />
<glyph unicode="@" horiz-adv-x="1654" d="M81 537.5q-28 226.5 39.5 449.5t270.5 376t461 146q291 -8 470 -237.5t130 -546.5q-31 -197 -61 -258q-53 -109 -174 -111q-82 -2 -162 37t-103 107l-43 -29q-41 -29 -114.5 -58.5t-153.5 -29.5q-88 0 -152.5 46t-64.5 138q0 49 22.5 94.5t71.5 85t82 63.5t100.5 61.5 t79.5 43.5q-12 20 -29.5 59.5t-28.5 62t-35.5 42t-57.5 19.5q-49 0 -88 -29t-49 -29q-35 0 -35 23q0 29 49 131q16 10 51 10h367q61 0 61 -39q0 -12 -12 -20t-27.5 -11.5t-28 -17.5t-12.5 -39q0 -20 21.5 -77.5t52.5 -127t61.5 -134t53.5 -113.5l24 -50q8 -10 22.5 -27.5 t20.5 -24.5t17.5 -16t26 -15.5t34.5 -10.5q43 -10 88 80t47 203q2 317 -136 491.5t-386 176.5q-162 2 -301 -70t-223 -187.5t-133.5 -258t-27 -286t93.5 -265t230.5 -203.5t378.5 -94q135 -8 235.5 28.5t211.5 126.5l135 39q-121 -150 -258 -216t-324 -64 q-344 6 -552.5 167.5t-236.5 388zM614 614q0 -39 31 -68.5t72 -29.5q43 0 114 29.5t87 54.5l-93 211h-18q-8 -8 -69.5 -49t-92.5 -75t-31 -73z" />
<glyph unicode="A" horiz-adv-x="1267" d="M158 338q0 221 102 455.5t328 396.5q-14 16 -31 16q-70 0 -114 -10t-61 -21.5t-47 -41t-48 -46.5q-10 4 -16.5 15.5t-4.5 19.5q9 62 9 92q0 10 -1 16q-4 26 -15 49.5t-11 41.5q0 10 9 18.5t17 6.5l377 -48h369q4 -4 8 -12t8 -10v-25q-14 -14 -59 -26q-8 -4 -14.5 -9.5 t-9.5 -10.5t-4 -13t-1 -12v-14.5v-12.5q0 -125 277 -879q14 -39 42.5 -61.5t43.5 -22.5q6 0 30.5 9.5t32.5 9.5q16 0 25.5 -13.5t9.5 -25.5q0 -4 -4 -11t-14.5 -17.5l-19.5 -19.5t-26.5 -25.5t-29.5 -28.5q-68 -68 -133 -68q-59 0 -93 49t-57.5 128t-40.5 106 q-88 -31 -295 -123q-55 -25 -142 -70t-139.5 -67.5t-76.5 -22.5q-180 0 -180 338zM406 424v-7q0 -157 92 -157q12 0 204.5 60.5t258.5 85.5q-43 212 -82 212q-10 0 -88 -18t-187.5 -47t-177.5 -51q-20 -6 -20 -70v-8zM473.5 690.5q22.5 -26.5 63.5 -26.5h1q37 0 320 71 l-129 408q-49 -5 -165 -145q-114 -137 -113 -239q0 -42 22.5 -68.5z" />
<glyph unicode="B" horiz-adv-x="1093" d="M57 70q41 16 74 59t33 76l6 567q0 160 -6 295q0 18 -88 84l12 45q41 14 135 52t153.5 59.5t142.5 42t149 20.5q130 0 234 -70q102 -68 102 -203v-5q0 -80 -86 -179q-14 -14 -33 -30.5t-29 -26.5t-10 -16q0 -18 55 -53t123 -76t125 -125.5t57 -190.5q0 -157 -140 -271 q-138 -113 -281 -112h-5l-719 11zM363.5 463.5q1.5 -19.5 3.5 -41.5l2 -23q0 -6 -1 -45t0 -49t5 -42t11 -42t21.5 -31.5t35 -28.5t51 -14.5t71.5 -7.5h94q117 0 202 69t85 198q0 111 -26 161q-20 37 -102 116q-79 77 -94 77h-1q-29 -20 -252 -162q-20 -12 -40.5 -23.5 t-32 -16.5t-13.5 -9q-10 -14 -15.5 -40t-4 -45.5zM369 1065q-3 -158 -3 -252q0 -125 5 -137q150 78 231 155q-14 14 -31.5 26.5t-38 26t-30.5 21.5l2 17q2 14 4 18t6 14.5t11 14.5t18 4q8 0 68.5 -32t66.5 -32q39 0 60.5 61.5t21.5 94.5q0 53 -21 96q-16 35 -40.5 53.5 t-39 20.5t-43.5 4q-2 0 -53 -7q-40 -5 -59 -5h-10q-8 -4 -38 -14.5t-48.5 -19.5t-30.5 -26q-6 -90 -8 -102z" />
<glyph unicode="C" horiz-adv-x="1222" d="M127 662q0 117 44 235.5t124 220t207 166t278 66.5q41 0 161 -20.5t187 -22.5q133 0 201 45q29 -15 29 -35q0 -6 -11.5 -16.5t-31 -25.5t-27.5 -24q-55 -53 -105 -110.5t-120 -142.5t-92 -111q-29 10 -29 37l16 57q14 57 15 61q0 76 -50.5 130.5t-115.5 58.5q-13 1 -27 1 q-68 0 -128 -26q-72 -32 -121.5 -86.5t-84 -125t-51 -141.5t-16.5 -136q0 -182 111.5 -345t328.5 -229q75 -22 99 -22h2q31 0 49 -2q84 0 156.5 28.5t113.5 57t45 28.5q16 0 22.5 -17t5.5 -34.5t-3 -19.5q-57 -66 -212 -124t-243 -63h-57q-281 0 -475.5 207t-194.5 480z" />
<glyph unicode="D" horiz-adv-x="1355" d="M152 891q0 39 88 122t88 93q0 25 -11.5 45t-30 34.5t-33.5 24t-32 15.5l-18 8l-2 31q35 10 135 38.5t153 43.5h27v-78l14 -8q186 110 346 110h3q264 -2 416.5 -179t152.5 -429q0 -197 -61.5 -345.5t-204.5 -346.5q-12 -16 -28.5 -53t-27.5 -54q-14 -25 -19 -28t-24 14 q-6 6 -17 21.5t-15 21.5q-86 22 -147 22h-5l-680 -2q-16 6 -18 23q0 27 22 37q59 39 70 61q12 23 29 117l8 676l-17 8q-23 -10 -45 -31.5t-54 -59.5t-44 -52q-18 66 -18 100zM506 330v-11q0 -106 38 -143q40 -39 158 -39q84 0 141.5 17.5t77 33t72.5 64.5q98 92 151.5 231.5 t55.5 266.5q0 61 -16.5 133.5t-51 153.5t-107.5 134.5t-171 53.5q-35 0 -111.5 -19.5t-95.5 -27.5q-123 -47 -127 -96.5t-6 -111t-2 -132v-97.5z" />
<glyph unicode="E" horiz-adv-x="1251" d="M170 35q0 23 39 42t53 42q10 16 19.5 102t9.5 111v700q0 31 -8.5 96.5t-14.5 75.5q-6 8 -17 15.5t-27.5 16.5t-26.5 17v23q51 23 145 46.5t111 23.5h34q-4 -38 -4 -78t4 -82q10 -10 21 -10q4 0 70.5 43t167 87t184.5 44q100 0 100 -45q0 -10 -8 -17.5t-18.5 -16.5 t-21.5 -48t-17 -103q0 -2 -3.5 -8t-6.5 -9t-11 -3q-10 0 -25.5 22.5t-41 45t-64.5 22.5h-5q-68 0 -182 -48q-118 -50 -130 -79q-4 -12 -6.5 -39t-3.5 -50.5t-1 -27.5q0 -76 7 -115q4 -4 14 -2q2 0 33.5 18.5t84 44.5t116 51.5t143.5 43t151 17.5h17h27.5t30.5 -1.5 t32.5 -3.5t27 -6t20.5 -11t5 -17q0 -4 -5 -12.5t-15.5 -23t-18.5 -26.5q-25 -41 -35 -80q-2 -8 -1 -47t-9 -47q-12 -20 -59 -20q-8 2 -12.5 13t-8.5 27.5t-8 22.5q-12 23 -43 43.5t-66 20.5q-66 0 -246 -56.5t-180 -111.5l7 -518q10 -10 18 -11q6 0 22.5 9.5t38 22.5 t33.5 19q274 115 596 115q43 0 116 -15t73 -44q0 -20 -37 -60q-31 -31 -31 -100q0 -10 4 -36.5t2 -45.5q-14 -27 -39 -31q-14 0 -67 45q-145 96 -375 97q-137 0 -295 -82q-41 -20 -70 -21q-8 0 -116.5 -1t-114.5 -1l-68 -4q0 2 -7 10.5t-7 18.5z" />
<glyph unicode="F" horiz-adv-x="1007" d="M164 -25q-2 20 12 48t31.5 49.5t36 42t20.5 22.5q10 16 13.5 48t3.5 83t2 70q0 12 -1 68v20q0 39 3 57l6 613q0 121 -82 137v24q121 45 264 95q20 -16 13 -60q-2 -10 -2 -19q0 -30 18 -46q131 70 222 97.5t202 29.5q41 0 116.5 -23.5t75.5 -68.5l-12 -13 q-12 -14 -32.5 -38.5t-37.5 -47.5q-14 -20 -29.5 -56t-21.5 -44l-31 -2q-6 10 -9 38.5t-7 39.5q-6 29 -43 48t-68 19q-68 0 -198.5 -41t-143.5 -69v-193q2 0 6.5 -3t12.5 -3l16 8q18 10 46 22.5t59.5 25t68.5 20.5t64 8l88 -2q8 -8 8 -25q0 -6 -21.5 -50t-27.5 -64 q-4 -14 -9 -54.5t-10 -54.5q-6 -16 -30 -16q-12 0 -23.5 16.5t-19.5 36.5t-27.5 36.5t-46.5 16.5q-59 0 -94 -13t-46.5 -35.5t-15.5 -52.5q-2 -15 -2 -31.5t2 -33.5q4 -96 4 -280.5t2 -278.5q-115 -43 -159 -67q-18 -10 -61.5 -50t-57.5 -49q-8 -4 -26.5 14.5t-20.5 30.5z " />
<glyph unicode="G" horiz-adv-x="1230" d="M197 698q0 12 18 83t31 102q82 211 242.5 333.5t340.5 122.5q94 0 222.5 -41t181.5 -41q6 0 41 3.5t61 5.5l4 -39q-180 -100 -247 -297h-33q-8 0 -11.5 3t-7.5 9l-2 8q16 44 16 86q0 64 -38 121q-64 94 -187 94q-20 0 -79.5 -25.5t-65.5 -31.5q-129 -80 -189.5 -236.5 t-60.5 -304.5v-7q0 -134 74 -284q76 -153 180 -245q2 -4 17.5 -3t25.5 7q14 8 44 33.5t42 31.5q141 88 250 142q8 90 8 141q0 45 -6 70q-4 4 -14 6q-10 0 -97.5 -23.5t-91.5 -23.5q-32 0 -32 54q0 34 14 52q141 27 227 55q16 4 262 105q2 -12 -14 -74q-4 -20 -15.5 -59 t-14.5 -57.5t-7 -58.5t-4 -91q2 -125 13.5 -185.5t50.5 -175.5q-14 -8 -65.5 -27.5t-78.5 -35.5q-2 -2 -30.5 -23.5t-73.5 -54.5t-84 -57q-109 -74 -142 -74q-18 0 -31.5 10.5t-11.5 26.5q0 6 42 43t97.5 105.5t80.5 146.5q-4 4 -6.5 8t-4.5 8q-37 -6 -77 -35 q-248 -158 -338 -272q-6 -8 -21 -8q-10 0 -69.5 55t-100.5 103q-51 57 -109.5 156.5t-86.5 180.5q-39 111 -39 379z" />
<glyph unicode="H" horiz-adv-x="1445" d="M217 772q13 2 33 2q30 0 76 -4q57 -4 74 -4h8q55 0 73 14q-8 59 -8 111q0 39 5 75q4 29 4 56q0 48 -13 92q-20 68 -90 107l2 30q37 18 143.5 49t143.5 46q14 -14 18 -21q-12 -176 -12 -264q93 -17 533 -17h50q23 0 33 5.5t11.5 12.5t1.5 23v7q0 104 -101 141v31h342 q10 0 18.5 -7.5t10.5 -7.5q-31 -20 -49.5 -46.5t-25.5 -65.5t-9 -63q-1 -16 -1 -46v-34q1 -56 1 -74q0 -16 -2 -55.5t-2 -45.5v-633q0 -14 2 -28.5t5 -24.5t11 -21.5t11.5 -17.5t15.5 -19.5t16 -16.5t20.5 -17t20.5 -18q-14 -29 -43 -29h-338q-8 0 -11 2t-4 6t-3 6v35 q51 14 77.5 57t28.5 96.5t2 113v104.5q6 61 7 174q0 45 -41 45l-521 6q-39 0 -61 -2q-16 -25 -16 -150l6 -301q4 -94 100 -149v-29q-14 -14 -27 -14q-6 0 -138 6t-140 6q-6 0 -29.5 -6t-34.5 -6q-12 0 -41 14v29q8 6 28 15t35 20.5t23 27.5q14 27 21 144l12 370 q0 10 -4 16.5t-9 9.5t-15.5 4t-16.5 1h-15h-11q-55 0 -74 -21.5t-30 -99.5h-25q-8 8 -15.5 33t-14.5 63.5t-11 53.5q0 4 -8.5 21.5t-8.5 23.5zM668 840q0 -53 14 -74l590 -6q35 0 35 37q0 86 -21 118h-610q-8 -33 -8 -75z" />
<glyph unicode="I" horiz-adv-x="542" d="M190 10.5q0 24.5 28 36.5t40 33q23 35 29 75t6 91t4 78l6 430q0 88 -10 194q0 6 -2 58.5t-7 90.5t-20 58q-8 12 -41 33.5t-33 38.5q0 25 33 24h371q0 -2 6 -19.5t6 -25.5q-4 -4 -34.5 -22.5t-45.5 -38.5q-16 -23 -27.5 -134.5t-11.5 -174.5v-443q0 -147 21 -270 q4 -27 46 -55.5t42 -51.5q0 -8 -4 -18t-4 -12h-365q-33 0 -33 24.5z" />
<glyph unicode="J" horiz-adv-x="913" d="M135 281q0 379 445 481q6 2 9 10t3 25.5v21.5q0 2 -1 22.5t-3 70t-2 124.5q0 35 -1 51.5t-9.5 48t-32 53t-60.5 36.5q0 18 9 35l356 8q25 0 39 -15v-28q-37 -14 -59.5 -34t-31 -46.5t-10.5 -46t-1 -53t1 -48.5q-6 -109 -6 -227q0 -23 58.5 -56.5t117 -72.5t58.5 -72 q0 -10 -29 -69.5t-51 -91.5q-6 12 -20.5 54t-25.5 66.5t-36 53t-55 41.5q-10 10 -11 -7v-219q0 -2 3.5 -20.5t3.5 -24.5q0 -2 1 -21.5t1 -43v-52t-2 -56t-9 -46.5q-35 -121 -119.5 -194.5t-197.5 -73.5q-94 0 -162.5 39t-103.5 103.5t-50.5 132t-15.5 141.5zM336 143.5 q41 -77.5 131 -77.5q47 0 82 47t35 88v434l-41 2h-9q-96 0 -167 -121q-72 -124 -72 -207q0 -88 41 -165.5zM553 1436q0 53 56.5 94t117.5 41q104 0 104 -82q0 -61 -55 -103.5t-112 -42.5q-47 0 -79 24t-32 69z" />
<glyph unicode="K" horiz-adv-x="1132" d="M254 20q0 23 12 39q4 4 20.5 14.5t33 23t20.5 22.5q20 53 20 112v838q0 35 -20.5 61.5t-34.5 35t-45 22.5v31q264 121 285 122q12 0 18 -6t6 -17t-3 -20.5t-7 -19.5l-4 -10q0 -6 -1 -36t0 -41t3 -38t8 -43t15.5 -37.5t25 -38t35.5 -30.5q49 53 121 153t94 127 q20 -12 74.5 -72.5t54.5 -79t-39 -58.5t-84 -73.5t-93 -69.5t-50 -38q39 -51 153.5 -220t204.5 -278.5t180 -175.5q-8 -49 -60 -137t-91 -88h-227q-51 80 -52 110q0 6 38 41t38 76q0 45 -152.5 311.5t-183.5 288.5l2 -661q0 -31 50.5 -77t50.5 -54q0 -2 -15 -35h-389 q-14 14 -12 26z" />
<glyph unicode="L" horiz-adv-x="1069" d="M106 29q0 25 34 47t55 51q38 56 38 192v7v757q0 23 -14 40.5t-28.5 26.5t-39 19.5t-30.5 14.5l-2 35q131 43 282 127h29q-2 -12 2 -32t4 -28l-2 -1173q2 0 6 -3.5t15 -3.5q6 0 48 8.5t54 10.5q57 8 86 13t80 20.5t83 36t68.5 57.5t63.5 86q70 123 96 237q2 6 6 41t11 52 q8 18 39 22q33 0 36 -41q0 -8 -19.5 -201.5t-19.5 -201.5q0 -70 26 -107t50.5 -57t24.5 -51q0 -16 -14 -31h-1053q-14 14 -15 29z" />
<glyph unicode="M" horiz-adv-x="1441" d="M121 0v27q0 14 10 22t23.5 11t29 15.5t23.5 35.5q39 104 39 278v651q0 55 -23.5 100.5t-47 67t-23.5 23.5q0 12 11 20.5t23.5 11.5t24.5 7l12 2q25 6 67 22.5t73.5 27.5t37.5 11h41q-1 -35 -1 -65q0 -82 8 -123q248 -227 337 -289q8 -6 22.5 -19.5t23 -18.5t24.5 -3 t39 16q297 238 344 285q10 12 11 53v21q0 31 -2 64q-1 12 -1 24q0 31 6 61q49 -35 125 -106.5t125 -126.5l51 -53q0 -10 -15 -19.5t-37.5 -22t-33.5 -28.5q-8 -12 -11 -32.5t-5 -48.5t-4 -40l-6 -538q2 -16 3 -83t9 -98q10 -35 37 -56t44 -34.5t13 -38.5q-20 -20 -41 -20 h-368q0 2 -4.5 10t-1.5 19q0 18 37.5 45.5t54.5 50.5q6 8 9 31.5t5 29.5l6 746v2h-8q-23 0 -289 -232v-561q0 -23 42 -63.5t46 -63.5q-2 0 -11 -10t-17 -10l-340 -2q-20 6 -25 32q0 20 20.5 35t46 40.5t35.5 74.5l7 510q-16 31 -118 119t-183 145q-8 -16 -9 -35l-6 -616 q0 -109 6.5 -148t53.5 -71.5t47 -48.5q0 -23 -27 -35l-366 -2q-10 0 -18.5 7t-10.5 7z" />
<glyph unicode="N" horiz-adv-x="1296" d="M182 35q0 8 29 27.5t57.5 50t28.5 67.5v852q0 47 -26.5 78t-53.5 46t-27 23.5t26 26t67 38t78.5 37.5t75.5 33.5t42 18.5q14 -14 17 -20q2 -20 1 -38t-2 -42.5t-1 -28.5v-22q0 -47 14 -64l16 -16q31 -31 56 -60q252 -291 364 -432q4 -4 29.5 -41t47 -59.5t44.5 -30.5 q37 49 74 148.5t37 152.5q0 25 -11.5 80t-35 127t-68.5 124t-103 52q-8 0 -22 -3t-23 -3q-20 0 -34 12l2 31q33 18 107.5 59t122.5 67t56 26q37 0 129.5 -155t98.5 -196q14 -115 14 -133q0 -74 -34 -148.5t-82 -137t-97 -122t-83 -125t-34 -122.5q0 -61 31 -96t121 -74v-49 h-289q-27 69 -27 120v13q4 43 18.5 96t27 86t12.5 31q0 14 -86 118.5t-221.5 264.5t-157.5 186q-16 -6 -18.5 -22.5t4 -43t6.5 -36.5v-807h-316z" />
<glyph unicode="O" horiz-adv-x="1458" d="M170 643q0 285 214 485.5t495 200.5q152 0 280.5 -61.5t211.5 -161.5t130 -225t47 -254q0 -285 -202.5 -484.5t-477.5 -199.5q-287 0 -492.5 208.5t-205.5 491.5zM436 686q0 -70 16.5 -142.5t53.5 -145t91 -129t138 -91.5t185 -35q6 0 47 6.5t49 6.5q84 0 225 120 q137 117 137 189q0 12 10.5 27.5t10.5 19.5q16 72 16 131v6q-1 217 -147 367q-148 152 -377 151q-180 0 -317.5 -151.5t-137.5 -329.5z" />
<glyph unicode="P" horiz-adv-x="1148" d="M203 1151v29q43 23 146.5 69.5t152.5 71.5l33 -2q0 -6 -4.5 -23.5t-5.5 -30t2 -33t14 -44.5q123 102 185 132t163 32h6q153 0 265 -108q111 -106 110 -213v-7l-13 -270l13 -115q-27 -4 -81 -8t-77 -8q-39 -6 -130 -33t-165 -29q-76 0 -152.5 48t-111.5 124 q-11 -23 -11 -84q0 -18 1 -39l14 -442q0 -39 30.5 -67.5t58.5 -48t24 -38.5q-6 -10 -29 -18t-29 -8l-399 8l-4 47q78 45 102.5 88t24.5 113v649q0 111 -22.5 161t-110.5 97zM541 889q0 -78 12 -117q25 12 37 12q8 0 33.5 -24.5t38.5 -30.5q70 -35 149 -35q113 0 178.5 75.5 t67.5 188.5q0 98 -67.5 172t-168.5 74q-74 0 -163 -52t-111 -118q-11 -33 -11 -79q0 -30 5 -66z" />
<glyph unicode="Q" horiz-adv-x="1388" d="M121 614q0 125 53 253t142.5 229.5t219.5 165t269 63.5q287 0 490.5 -192.5t203.5 -477.5q0 -115 -33.5 -215t-78 -160.5t-106.5 -113.5t-94 -72.5t-67 -38.5q-6 -2 -8 -4q14 -45 113.5 -100t169.5 -78q90 -33 114 -35q15 -11 15 -31q-2 -10 -13.5 -20t-21.5 -12 q-29 0 -114 5t-122 5q-8 0 -118.5 -4t-120.5 -4q-23 14 -37 92t-33 111q-76 -18 -166 -19q-254 0 -455.5 197.5t-201.5 455.5zM389 657q0 -193 131 -352.5t336 -161.5q41 0 59 13q-10 45 -38 213q18 16 41 16q27 0 36 -10t11 -27.5t17 -62.5t48 -97q135 43 224 181.5 t89 263.5q0 211 -136 371q-134 159 -352 159h-5q-193 0 -327 -155.5t-134 -350.5z" />
<glyph unicode="R" horiz-adv-x="1257" d="M240 0l2 37q62 29 84 74q16 34 17 67q0 11 -2 22q-2 15 -2 30q0 30 9 63l-8 817q0 25 -9 45.5t-21.5 32.5t-26 21.5t-21.5 14.5t-8 7q0 4 10 23.5t17 19.5q35 6 95 22.5t104 29.5t50 13q8 0 15.5 -3t9.5 -3q2 -29 -1 -55.5t-6 -38.5t1 -27.5t18 -29.5q37 14 105.5 40.5 t100.5 39t81 27t91 20.5t89 6q72 0 141.5 -23.5t126 -85t56.5 -147.5q0 -139 -122 -241.5t-304 -162.5q33 -111 87 -218t109.5 -183t104.5 -134.5t81 -91t32 -34.5q0 -6 -15.5 -29.5t-35 -55.5t-25.5 -52q-12 -37 -13 -111q0 -6 3.5 -22.5t10.5 -47t11 -55.5 q-14 -14 -29 -14q-23 0 -126 144.5t-132 199.5q-12 20 -29.5 73.5t-25.5 71.5q-41 94 -64.5 174t-46 172.5t-43.5 157.5q-6 -2 -48 -14.5t-83 -22.5t-69 -12q-33 -2 -33 -31l4 -321q10 -94 25 -119q10 -16 41.5 -34.5t40.5 -27.5q-8 -37 -39 -36q-8 0 -97.5 6t-99.5 6 q-8 0 -72.5 -3t-70.5 -3q-29 0 -45 12zM551 678q0 -14 14 -29q182 61 201 86q-4 25 -14.5 80t-12.5 78q2 2 7.5 4t17.5 9t22.5 12.5t19.5 9.5t13 4q14 0 27.5 -32t25 -72t21.5 -52q194 105 194 234q0 66 -55 105.5t-125 41.5q-55 0 -193.5 -46t-154.5 -58z" />
<glyph unicode="S" horiz-adv-x="1200" d="M203 63q0 12 106.5 216t118.5 213q3 3 8 3q17 0 56 -34q-12 -41 -24 -103q-11 -53 -11 -70q1 -66 37 -108t95.5 -56.5t98.5 -19t78 -4.5q117 0 215 55.5t98 178.5q0 90 -78.5 151.5t-189.5 98.5t-222.5 80t-188 123.5t-76.5 201.5q0 119 106.5 215t220.5 99l463 6 q33 0 56.5 -21.5t23.5 -50.5q0 -10 -164 -326h-31q-16 9 -16 68v14v13q0 63 -18 102q-14 29 -35 41q-25 14 -80 26.5t-86 12.5q-72 0 -145.5 -41t-73.5 -127q0 -29 10 -53.5t33.5 -45t45 -36t62.5 -31.5t68 -25.5t79 -26t79 -26.5q393 -134 393 -423q0 -101 -44 -180 q-42 -75 -111.5 -115t-144.5 -58t-155 -18l-598 6q-16 -4 -37.5 27.5t-21.5 47.5z" />
<glyph unicode="T" horiz-adv-x="1388" d="M164 918q0 4 29.5 56t72.5 129t66 128q4 10 13 41t17 47q10 14 27 14q6 0 20.5 -6t34 -14t27.5 -10q47 -14 196.5 -30t233.5 -16q33 0 82 6.5t97 14.5t100.5 19.5t90.5 19.5t64 14l29 8q18 -41 49 -126t47 -121q8 -18 29.5 -56.5t37 -68t15.5 -35.5q0 -16 -13 -31.5 t-26 -15.5q-25 0 -49 47q-47 78 -200.5 145.5t-270.5 67.5q-12 0 -29 -19v-942q0 -61 27 -101t54.5 -57.5t27.5 -21.5q0 -10 -4 -15t-4 -7l-375 -7q-29 0 -41 13v32q49 12 81 55.5t32 86.5l6 923q0 33 -5 42.5t-32 9.5q-104 0 -279.5 -87t-234.5 -165h-23q-20 20 -20 33z " />
<glyph unicode="U" horiz-adv-x="1529" d="M94 950q0 10 12.5 30.5t30 43.5t21.5 31q45 84 65 162q4 10 19.5 25t25.5 15q8 0 159 -3t159 -3h291q4 -2 8 -10l6 -12q-158 -139 -227.5 -264t-69.5 -269q0 -59 20.5 -139t60.5 -165t114.5 -143.5t166.5 -58.5q63 0 214 70t151 107v641q0 10 -10.5 68.5t-16.5 68.5 q-12 20 -46 39.5t-34 38.5q0 8 21 28h381q2 -2 10 -6t10 -8v-37q-35 -12 -66.5 -50t-31.5 -71q-10 -733 -10 -874q0 -78 61 -78q35 0 76 16q23 -8 23 -28q0 -23 -67 -66t-131.5 -74.5t-68.5 -31.5q-31 0 -59.5 18.5t-32.5 40.5q-8 39 -11 119t-5 92q-12 -8 -62.5 -39 t-76 -47t-68.5 -45t-77 -56.5t-62 -58.5q-29 -29 -66 -94q-223 88 -375.5 303t-152.5 410q0 260 196 510q-4 4 -22 4q-12 0 -66.5 -14.5t-77.5 -26.5q-37 -18 -104.5 -57t-115.5 -68t-52 -29q-20 0 -28.5 16.5t-8.5 28.5z" />
<glyph unicode="V" horiz-adv-x="1132" d="M166 985q0 70 54 147.5t130 120.5q4 2 19.5 15.5t25.5 15.5q16 0 28.5 -16.5t12.5 -28.5q0 -4 -21.5 -30.5t-42 -71.5t-20.5 -100q0 -95 146 -375q148 -284 233 -420q72 53 176.5 249.5t104.5 319.5q0 102 -58.5 170t-150.5 68q-2 0 -125 -31q0 2 -7 14t-5 21 q0 8 85 74.5t169 129.5l84 64q18 0 90 -78q90 -92 120.5 -169t30.5 -165q0 -109 -67.5 -249t-147.5 -244.5t-147.5 -195.5t-67.5 -114q0 -20 65.5 -53t73.5 -43l-2 -26q-14 -14 -22 -15q-4 0 -27.5 2t-54.5 4t-49 2q-39 3 -99 3h-30q-43 0 -79 -2q-48 -2 -89 -2.5t-43 -0.5 q-10 0 -29 13l-2 24q23 16 72 38t63 30q0 20 -4 31q-25 59 -131 238t-184 348t-78 288z" />
<glyph unicode="W" horiz-adv-x="1708" d="M33 993q0 92 64.5 204t150.5 112q10 0 24.5 -16.5t18.5 -26.5q-47 -43 -68.5 -78t-21.5 -82q0 -61 91 -273t175 -381t98 -192l314 430q-18 39 -50 103.5t-41.5 88t-19.5 61.5t-10 75q0 76 71.5 186.5t131.5 110.5q18 0 31.5 -19.5t11.5 -27.5q0 -6 -21.5 -25.5 t-26.5 -28.5q-14 -18 -22 -81q0 -100 147.5 -412.5t218.5 -435.5q49 31 174 250t125 321q0 96 -71.5 160.5t-159.5 64.5q-61 0 -88 -24h-20q-18 29 -23 59q37 23 133 83.5t156.5 97t69 36.5t46.5 -30q203 -172 203 -377q0 -98 -73.5 -237.5t-162.5 -251t-163 -204 t-74 -104.5q0 -23 79 -67t79 -56q0 -10 -4 -16l-4 -6h-535v39q12 8 52 27.5t67 37.5t31 35l-193 414l-317 -412q18 -33 82.5 -72t68.5 -43q0 -12 -14 -30l-510 -3q0 2 -4 14.5t-4 18.5q4 4 43 22.5t70.5 39t31.5 35t-90 187.5t-179 383t-89 316z" />
<glyph unicode="X" horiz-adv-x="1273" d="M109 244q0 80 44 188.5t121 171.5q8 6 88 61.5t156 108.5l76 53q0 29 -103.5 166t-134.5 137q-6 0 -26.5 -6t-28.5 -6q-29 0 -29 33q0 27 13 33q8 6 23.5 13t36 17.5t30.5 14.5q12 6 51 30.5t72.5 42t54.5 19.5q23 -47 81 -144.5t107.5 -175t53.5 -77.5q37 0 97 60t66 87 q0 6 4.5 28.5t4.5 30.5q0 74 -62 142l2 31h287q53 0 70.5 -24t17.5 -77q0 -39 -14.5 -75.5t-47 -70.5t-61.5 -60.5t-79 -57.5t-76.5 -47.5t-81 -44t-64.5 -33.5q29 -49 101.5 -181t121.5 -218t119 -189.5t127 -161.5q6 -8 30.5 -17t31.5 -13q14 -4 26 -31q-6 -6 -6 -27 l-471 -8q-18 0 -29.5 13.5t-9.5 23.5q0 14 23.5 25.5t46 31t22.5 52.5q0 18 -45 105t-96 177t-109.5 191.5t-66.5 115.5q-119 -29 -213 -143.5t-94 -222.5q0 -162 202 -209q-4 -31 -36.5 -94.5t-61.5 -63.5h-254q-51 0 -82 117q-27 101 -27 145q0 7 1 13z" />
<glyph unicode="Y" horiz-adv-x="1439" d="M139 985q0 31 21 41q92 47 194.5 129t161.5 138.5t66 56.5q12 0 31.5 -14.5t17.5 -26.5l-4 -6q-6 -8 -14.5 -20.5t-18.5 -30t-20.5 -39t-18.5 -44t-13 -50t-5 -54.5q0 -90 99 -311.5t144 -286.5q12 24 12 67q0 10 -1 20t-1 18q0 44 13 61q106 6 129 10q14 -8 17 -37 q1 -14 1 -37t-1 -55q-3 -63 -3 -80q6 0 17 -14q135 213 202.5 364.5t67.5 305.5q0 53 -7 90t-15.5 50t-15.5 24.5t-7 17.5v53q41 20 55 21q4 0 44 -55.5t121 -142.5t171 -147q20 -14 20 -55q0 -27 -11 -35t-41.5 -10t-51.5 -8q-45 -14 -89 -55t-64.5 -69t-62.5 -98.5 t-46 -76.5q-20 -35 -83 -131t-106 -168t-75 -141q-6 -12 -8.5 -42t-2.5 -56.5v-57.5l3 -31v-78.5t3 -72.5t9 -70t15 -51.5t26.5 -38.5t40.5 -12l2 -31q2 -14 -60.5 -67.5t-68.5 -53.5q-4 0 -51.5 4t-71.5 4q-47 0 -126 -2t-140.5 -4t-65.5 -2q-23 0 -42 10.5t-21 24.5 q0 12 14 31q4 2 105.5 27.5t129.5 45.5q31 23 52 56q47 76 47 290q0 51 -21.5 105.5t-62.5 131.5t-58 116q-12 29 -127 245q-14 29 -52 110t-71.5 134t-80.5 94q-16 14 -54 23.5t-65 19t-27 29.5z" />
<glyph unicode="Z" horiz-adv-x="1273" d="M63 223q0 4 34 28.5t78 57.5t61 51q14 -8 55 -66t71 -79q66 102 147 240.5t184.5 323t152.5 268.5q-22 26 -187 26h-12q-188 -4 -260 -20q-41 -8 -112.5 -49t-86.5 -56h-28l-15 15q18 33 52 93t47 81q10 18 33.5 71.5t33.5 75.5q55 -12 95 -21.5t76 -15.5t56.5 -9 t51.5 -4t43 -2t50 -1h56h34h38t36.5 1t47 5t51.5 9t67 14.5t77 21.5q6 -4 11 -15.5t11 -24.5t8 -17q10 -23 37 -56.5t47.5 -58.5t20.5 -31q0 -4 -5.5 -17t-13.5 -34.5t-14 -40.5q-10 -33 -10 -74q-8 -23 -35 -22q-8 0 -31.5 10t-30.5 10q-29 0 -65.5 -27.5t-65.5 -72.5 q-70 -115 -196.5 -338t-188.5 -326q0 -4 11 -14h198q121 0 214 33t143.5 81t83 95t52 80t32.5 33q16 0 55 -31t39 -39q0 -2 -17.5 -42t-39 -95t-31.5 -92q-8 -35 -22.5 -116t-22.5 -116l-29 2q-39 25 -99.5 41.5t-136 21.5t-131.5 7q-38 1 -85 1h-49q-77 -1 -93 -1 q-63 0 -218 -20.5t-204 -45.5h-24q-12 84 -78 230q-4 10 -29 32.5t-25 30.5z" />
<glyph unicode="[" horiz-adv-x="739" d="M154 -430v1802h430v-61h-275v-1680h275v-61h-430z" />
<glyph unicode="\" horiz-adv-x="946" d="M78 1190h86l639 -1229h-86z" />
<glyph unicode="]" horiz-adv-x="739" d="M152 -369h264v1680h-264v61h430v-1802h-430v61z" />
<glyph unicode="^" horiz-adv-x="765" d="M207 956l92 166h141l95 -166h-70l-94 95l-95 -95h-69z" />
<glyph unicode="_" horiz-adv-x="1157" d="M0 -328h1014v-92h-1014v92z" />
<glyph unicode="`" horiz-adv-x="790" d="M449 1122h141l92 -166h-68z" />
<glyph unicode="a" horiz-adv-x="886" d="M57 184q0 45 21.5 90t50.5 78t79 69t84 56.5t89 52t74 41.5q-10 18 -39 83t-55.5 91.5t-73.5 26.5q-55 0 -99.5 -31.5t-54.5 -31.5q-12 0 -25.5 7t-13.5 19q0 27 56 146q18 10 57 10h405q70 0 70 -43q0 -14 -13.5 -22.5t-30.5 -12.5t-30.5 -20.5t-13.5 -42.5 q0 -29 36 -120t79 -183.5t81.5 -172t38.5 -81.5q14 -35 66 -35q18 0 76 26q14 -29 14 -39q0 -39 -86 -102t-115 -63q-43 0 -70.5 31.5t-43 64.5t-25.5 33l-47 -31q-45 -33 -128 -65.5t-171 -32.5q-98 0 -170 50t-72 154zM270 236q0 -43 34 -76t79 -33q49 0 128 33.5t95 60.5 l-102 234h-21q-12 -10 -77.5 -54.5t-100.5 -83t-35 -81.5z" />
<glyph unicode="b" horiz-adv-x="931" d="M115 29q0 16 18 30l44 36t24.5 20.5t15.5 18.5t5 14.5t5 24.5t6 32l13 717q0 117 -21 153q-16 31 -57 46.5t-41 37.5q0 33 20 39q29 10 95.5 39t111.5 46t54 17q26 0 26 -44q0 -16 -4 -39l-6 -410q4 -4 12 -4q6 0 20.5 9t39 25.5t51.5 26.5q57 23 133 23q88 0 158.5 -43 t112.5 -110.5t63.5 -145.5t21.5 -152q0 -106 -42 -225t-99 -205l-752 -6q-10 0 -19 9t-9 20zM418 193q0 -41 48 -67t89 -26q74 0 131 36t88 93.5t45.5 117t14.5 118.5q0 51 -15.5 111.5t-64.5 118t-121 57.5q-43 0 -120 -27t-87 -57q-8 -27 -8 -97v-378z" />
<glyph unicode="c" horiz-adv-x="950" d="M184 401q0 215 131 369q129 152 333 152h5q4 0 86 -10q68 -8 86 -7h6q23 0 78.5 12.5t57.5 12.5q12 0 22 -7.5t13.5 -14.5t1.5 -11q0 -8 -43 -64.5t-122 -154.5t-106 -133h-31q-12 8 -13 29.5t5 49t6 33.5q-2 66 -36.5 106t-90.5 40q-98 0 -168.5 -89t-70.5 -182v-5 q0 -133 100 -241q102 -110 240 -110h57q57 0 128 49t118 99l47 49q10 0 20.5 -10.5t10.5 -20.5q0 -12 -40 -87t-71 -108q-144 -161 -347 -161h-3h-5q-170 0 -287 125q-118 127 -118 290z" />
<glyph unicode="d" horiz-adv-x="1003" d="M139 408q0 117 40 221t130 179t215 75q55 0 103.5 -20.5t136.5 -78.5q4 0 12 9q0 20 2 94q1 21 1 40q0 45 -4 75q-5 42 -23 81q-10 20 -32 28.5t-40 6.5t-32.5 7.5t-14.5 33.5q0 23 14 37q264 86 273 86h34v-1135q0 -33 27 -59.5t57.5 -43.5t34.5 -21v-48l-780 -2 q-53 47 -103.5 190.5t-50.5 244.5zM360 436q0 -53 14.5 -110.5t44.5 -114.5t86 -93t130 -36q25 0 74 22.5t55 51.5q14 70 14 299q-8 188 -16 196q-29 29 -92.5 52.5t-106.5 23.5q-109 0 -156 -92t-47 -199z" />
<glyph unicode="e" horiz-adv-x="841" d="M78 383q0 184 127 343t319 159q98 0 205 -65.5t150 -192.5q-170 -70 -230 -109q-51 -35 -182 -140.5t-131 -119.5q0 -39 60.5 -68.5t111.5 -40t61 -10.5q76 0 142.5 31t102.5 67.5t61.5 67.5t31.5 31q29 0 29 -33q0 -45 -68 -137q-92 -125 -174 -167t-205 -42 q-186 2 -298.5 126t-112.5 300zM240 485q0 -133 45 -137q6 6 90 79t130 130t46 102q-4 27 -4 29q-10 29 -30.5 56.5t-43.5 29.5q-12 2 -58 -13.5t-65 -29.5q-49 -37 -74.5 -85t-29.5 -78.5t-6 -82.5z" />
<glyph unicode="f" horiz-adv-x="800" d="M137 963v47q29 12 55.5 28.5t43 29.5t38 37.5t30.5 36t29.5 42t26.5 39.5q43 61 130.5 98t166.5 39q37 0 133.5 -52.5t98.5 -103.5q0 -16 -88 -114.5t-94 -98.5q-18 0 -31 23q12 25 15 62q1 13 1 27q0 24 -3 48q-5 39 -31.5 66.5t-71.5 27.5q-66 0 -93.5 -48t-27.5 -99 q0 -47 14.5 -83t28.5 -54.5t14 -24.5q0 -8 -16.5 -33.5t-18.5 -34.5q-6 -14 -16 -92q0 -25 12 -37h17q29 0 80 55.5t53 57.5q29 -18 29 -41q0 -8 -11.5 -45t-13.5 -49q-6 -29 -9 -87.5t-5 -72.5h-27q-49 49 -94 49q-23 0 -23 -223v-604h-55q-20 76 -91 134t-143 77 q-20 14 -20 24q0 29 70 70q55 34 55 291v18v27q0 4 1 41t0 53t-5 43t-15.5 38t-29.5 11q-6 0 -26.5 -3t-29.5 -3q-34 0 -34 44q0 40 14 53.5t32.5 11.5t46 2t48.5 20v7q0 72 -41 140q-43 72 -119 85z" />
<glyph unicode="g" horiz-adv-x="1046" d="M172 360q0 102 21 162q39 115 108.5 190.5t163.5 111.5t214 48q56 5 117 5q69 0 144 -7q8 -8 8 -18q0 -8 -40 -67.5t-91 -135.5t-67 -112q-6 -12 -29 -13q-25 0 -34 32t-11 71t-32 70.5t-93 31.5q-96 0 -147.5 -80t-51.5 -166v-6q0 -127 78 -225q80 -100 219 -100 q170 0 207 94q4 10 5 54t2 105.5t5 96.5q10 94 88 203.5t181 128.5q26 -27 26 -50q-90 -88 -98 -116q-6 -18 -23 -154l-6 -885q-2 0 -7 -4t-13 -6q-2 0 -26.5 12.5t-66.5 28.5t-93.5 32.5t-119 29t-132.5 12.5q-20 0 -47 -6.5t-54.5 -28t-27.5 -55.5q0 -23 22.5 -47.5 t22.5 -30.5q0 -27 -45.5 -40t-67.5 -13q-61 0 -98 58t-37 107q0 59 28.5 101.5t72.5 62t83 26.5t76 7q80 0 135 -12.5t122.5 -41t92.5 -36.5q2 2 5 3t4 3t1 10v289l-12 12q-114 -114 -310 -114h-3q-166 0 -269 108q-100 105 -100 258v6z" />
<glyph unicode="h" horiz-adv-x="1011" d="M63 8q0 4 55.5 54.5t61.5 87.5q2 8 4 38.5t6 42.5l5 879q-6 27 -36 60.5t-57 54.5l-26 22q0 29 57 29l977 -6q14 -29 14 -41q0 -18 -30.5 -119.5t-53.5 -122.5q-12 0 -21 15.5t-20.5 43t-21.5 44.5q-29 43 -88.5 68.5t-110.5 25.5h-22q-83 0 -204 -12q-138 -14 -171 -46 l-8 -325q0 -20 16 -37q170 115 338 115q156 0 242 -94.5t86 -241.5q0 -37 -3 -69t-14.5 -62.5t-19.5 -51t-29.5 -53.5t-33 -49t-43 -58t-46.5 -63q2 -2 27 -6q31 0 58.5 13.5t44 26.5t42 40t33.5 35h21q14 -14 14 -25q0 -12 -50 -117.5t-65 -121.5h-383l-14 16 q113 137 170 244.5t57 214.5q0 109 -58 183q-56 73 -165 73h-6q-31 0 -125 -30t-94 -73v-628h-301q0 2 -4.5 9t-4.5 17z" />
<glyph unicode="i" horiz-adv-x="495" d="M121 14l2 37q43 10 70.5 36t38 68t12.5 69.5t2 74.5v14q0 20 1 67.5t1 53.5q0 59 -17 228q-2 27 -50 55t-52 33q6 25 127 70.5t141 45.5q33 0 33 -96v-571q0 -51 24.5 -84t96.5 -72v-29l-2 -4q-2 -4 -6 -7t-11 -3h-393q-8 0 -11 2t-4 6t-3 6zM229 1096q2 51 47.5 88 t90.5 37q88 0 88 -76q0 -45 -45 -89t-91 -44q-39 0 -64.5 23.5t-25.5 60.5z" />
<glyph unicode="j" horiz-adv-x="409" d="M96 -301q0 4 19.5 23.5t48.5 47t43 50.5q20 29 32.5 67.5t15.5 66.5t6 78t5 70l6 439v16q0 57 -13 93q-15 42 -36.5 57.5t-43 20.5t-38 11t-16.5 19q0 10 16 35q37 8 101.5 26.5t111.5 31.5t54 13h34q12 -25 13 -41v-817q0 -102 -96.5 -204.5t-221.5 -145.5h-31 q-12 25 -10 43zM209 1141q0 51 46 91t91 40h7q40 0 67 -22q29 -25 29 -70q0 -51 -49.5 -91t-96.5 -40q-94 0 -94 92z" />
<glyph unicode="k" horiz-adv-x="841" d="M63 20q2 14 31 38t31 30q37 61 45 85t8 71v796q0 61 -15.5 104.5t-34.5 60t-34.5 29.5t-15.5 23q0 8 7 19.5t7 15.5h277v-315v-334q9 -9 69 -35q55 -24 63 -24h1q51 0 75.5 115.5t24.5 179.5h170q14 -12 14 -41q0 -51 -32.5 -119t-66.5 -116t-34 -54q0 -14 17.5 -21.5 t38 -9.5t22.5 -2q12 -2 18.5 -26.5t10.5 -76t6 -63.5q8 -55 43 -155t78 -166q-10 -29 -53 -29h-146q-53 0 -59 14q-12 29 -20.5 159t-39.5 196q-16 35 -49 57.5t-82 45t-71 36.5q-4 -10 -5 -68v-387q0 -8 3.5 -15t3.5 -11q-6 -8 -19.5 -13.5t-25.5 -5.5l-11 -2 q-82 0 -135 -3t-78 -3q-12 0 -37 20z" />
<glyph unicode="l" horiz-adv-x="403" d="M133 0v35q88 31 113.5 81t25.5 136l4 639q-6 18 -7 56t-10 69t-38 55q-4 2 -20.5 7t-29.5 10.5t-13 13.5t2 12t5 7t3 5q63 14 139 64.5t119 114.5q4 -2 12 -9.5t11 -11.5v-1284h-316z" />
<glyph unicode="m" horiz-adv-x="1447" d="M158 22.5q0 8.5 60.5 54.5t60.5 54q0 10 -29 57.5t-57.5 126t-28.5 168.5q0 162 94 279t260 117q74 0 126 -22.5t75.5 -50.5t53.5 -50.5t63 -22.5q31 0 60.5 23.5t55 52.5t82 52.5t129.5 23.5q174 0 261 -117.5t87 -271.5q0 -61 -9 -108.5t-20.5 -74t-41 -86 t-49.5 -110.5q20 -16 62 -42t56 -38v-37h-319q-8 0 -8 16q0 4 15 32t35.5 65t29.5 59q38 114 38 223v6q0 49 -10 98.5t-31.5 102.5t-65.5 86t-106 33q-49 0 -83.5 -23.5t-52 -54.5t-25.5 -82t-10 -81q-1 -11 0 -24q0 -22 2 -52q2 -48 2 -50q0 -6 -1 -39.5t-1 -58.5t3 -57.5 t10 -62.5t19 -50q10 -18 44 -39.5t42 -30.5q-2 -2 -6 -7t-8 -8t-6 -5h-379l-4 29q35 8 60.5 31.5t36.5 50t17.5 67.5t6.5 66.5t-1 65.5t-1 46q0 10 1 54q0 22 1 40q0 18 -1 30q-1 24 -4.5 66t-16.5 67.5t-32.5 52t-54.5 39t-82 12.5q-63 0 -107 -34t-62.5 -86t-26 -95 t-7.5 -84q0 -115 19.5 -181.5t87.5 -203.5l2 -27q-2 0 -26.5 -1t-92 -1h-178.5q-14 14 -14 22.5z" />
<glyph unicode="n" horiz-adv-x="1083" d="M209 8v23q104 82 106 149l7 406q0 14 1 42.5t1 45t-3.5 39t-13.5 41.5q-12 23 -53 52.5t-41 35.5q0 8 4 16t4 14h314q14 -14 14 -22q0 -6 -11.5 -26.5t-13.5 -28.5v-2q2 -2 11 -2q2 0 23.5 13t52 32.5t48.5 27.5q63 27 162 27q166 0 251 -118t85 -261q0 -137 -153 -389 q33 -25 133 -80v-29l-21 -20h-311q-8 8 -8 22l39 54q37 53 74.5 148t37.5 202q0 51 -8 97t-28.5 94t-64.5 76t-106 28q-74 0 -146.5 -33t-86.5 -90q-8 -31 -10 -81q-1 -33 -1 -63v-29q1 -42 1 -46v-34v-38t1 -39t3 -42t6 -37.5t10 -39t15.5 -34t21.5 -31.5t27.5 -23.5 t35.5 -17.5v-23l-20 -20h-369q-4 2 -10 6t-10 8z" />
<glyph unicode="o" d="M152 397q0 117 69.5 255.5t204.5 205.5q6 2 17.5 10.5t20.5 14.5t17 6q6 0 12.5 -6t13.5 -15.5t13 -13.5q-121 -113 -149.5 -166t-28.5 -147q0 -90 39 -192.5t125 -185.5t196.5 -83t175 74.5t64.5 175.5q0 78 -31.5 171t-105.5 171t-166 78q-123 0 -186 -113l-27 2 q-20 20 -27 31q68 111 157 171t177 60q150 0 267.5 -131t117.5 -278q0 -231 -139 -378t-356 -147q-186 0 -328.5 121t-142.5 309zM563 430q0 41 31 64.5t72 23.5q27 0 50 -37t23 -55q0 -33 -26.5 -64.5t-61.5 -31.5q-39 2 -63.5 37.5t-24.5 62.5z" />
<glyph unicode="p" horiz-adv-x="1099" d="M57 -410q141 47 146 230l12 624q-2 23 -3 68t-5 79t-12 60q-12 33 -44 58.5t-56.5 41t-24.5 27.5q0 37 28 41q33 6 99.5 22.5t113.5 27t54 10.5h45q0 -84 2 -129q8 0 8 -5q4 0 24.5 18.5t46 42t41.5 32.5q27 12 46.5 20t31 12t25.5 6.5t20.5 3.5t23.5 0t28 -1 q193 0 308 -152t115 -330q0 -2 -5 -33.5t-13 -84t-12 -95.5q0 -6 -8 -133q-14 -20 -29 -20q-6 0 -36 3t-38 3t-133 -15.5t-133 -15.5q-182 0 -307 176q-10 -18 -10 -90l4 -264q4 -201 153 -238q0 -37 -10 -51q-45 0 -101.5 1t-95.5 3t-43 2q-6 0 -106.5 -6t-110.5 -6 q-16 0 -39 18v39zM403 225q4 10 18.5 22.5t27.5 12.5q8 0 16 -6t17.5 -18.5t13.5 -16.5q59 -59 161 -59q106 0 189.5 82.5t83.5 195.5q0 98 -65.5 194.5t-186.5 96.5q-70 0 -159 -47t-105 -115q-4 -27 -10 -168q-3 -82 -3 -127q0 -33 2 -47z" />
<glyph unicode="q" horiz-adv-x="1005" d="M82 399q0 182 142.5 343t334.5 163q188 0 326.5 -136t138.5 -329q0 -45 -25.5 -133t-52.5 -129q-8 -12 -31.5 -35.5t-42 -44t-18.5 -26.5q0 -29 57.5 -60.5t126 -60.5t80.5 -41v-23q-4 -2 -18.5 -11t-22.5 -9t-22.5 6t-20.5 6q-8 0 -98 -3t-98 -3q-37 0 -57.5 33 t-33 66.5t-30.5 33.5l-12 -4q-12 -4 -34 -11t-46.5 -13.5t-55 -10.5t-57.5 -4q-182 2 -306 133t-124 303zM276 471q0 -131 86.5 -225t223.5 -94q43 0 63 12q-6 23 -21.5 66.5t-19.5 62.5q31 23 56 22q20 0 34.5 -21.5t28.5 -53t27 -43.5q72 23 113.5 111.5t41.5 158.5 q0 96 -82 199.5t-198 105.5q-135 0 -242.5 -78t-110.5 -223z" />
<glyph unicode="r" horiz-adv-x="733" d="M57 716.5q0 22.5 17 39.5q35 12 102.5 38.5t116.5 46t55 19.5q10 0 16.5 -10t8.5 -26.5t2 -31t-2 -30.5v-17v-2q2 -2 10 -2q2 0 22.5 15.5t55.5 38t79 45t102 38t116 15.5q31 0 44 -8t13 -35q1 -18 -25 -124q-28 -114 -47 -148h-41q-25 129 -135 129q-102 0 -188 -103 v-430q0 -39 19.5 -64.5t43 -34.5t43 -21.5t19.5 -27t-12.5 -25.5t-26.5 -11h-348q-23 0 -35 14t-12 31q0 6 30.5 23.5t60 55.5t29.5 93v379q0 43 -20 64.5t-46 23.5t-46.5 11t-20.5 31.5z" />
<glyph unicode="s" horiz-adv-x="790" d="M78 74q0 6 10 21.5t23.5 35t19.5 27.5q8 14 33.5 67.5t48.5 88t43 40.5q12 -4 17.5 -23.5t8.5 -55t5 -48.5q10 -53 75.5 -95t116.5 -42q72 0 151 36t79 116q0 70 -56.5 105.5t-135.5 50t-158.5 31.5t-136 69.5t-56.5 144.5q0 121 87 201t198 80q8 0 62 -7.5t112.5 -16.5 t62.5 -9q33 0 94 6q0 -2 4.5 -8t4.5 -15q0 -4 -20.5 -36.5t-59.5 -87t-80 -103.5h-21q-6 10 -9 23.5t-5 32t-4 28.5q-6 39 -46 65.5t-67 26.5q-53 0 -105 -30.5t-52 -81.5q0 -55 56 -85t138 -46.5t164 -40t140.5 -85t58.5 -161.5q0 -82 -40 -145.5t-100.5 -97.5t-120 -51 t-112.5 -17q-96 0 -196.5 35.5t-133.5 35.5q-6 0 -16 -2t-30.5 -5t-45.5 -5q0 2 -4 13.5t-2 19.5z" />
<glyph unicode="t" horiz-adv-x="524" d="M76 180q0 25 22 37q35 2 55.5 18.5t27.5 50t8 47t1 44.5v358q-72 0 -108 19v75q12 18 33 17q8 0 21.5 -3t21.5 -3q29 0 34 4t5 26q0 55 -31 89t-60.5 51.5t-29.5 31.5q0 16 12 27.5t26.5 16t29 7.5t16.5 3q51 14 91 42.5t80 69.5t58 56q29 -14 29 -43q0 -8 -22.5 -112.5 t-22.5 -113.5v-137q10 -10 18 -12q31 0 72 34.5t69 73.5h23q14 -14 14 -28q0 -4 -16 -47t-21 -68q-2 -16 -2 -158q-8 -8 -24 -8q-6 0 -25.5 14.5t-46 36t-41.5 31.5h-16q-10 -31 -10 -63v-7.5t1 -19.5t2 -38t2 -74t1 -117l-2 -23q-2 -23 -3 -46.5t2 -55t9 -55t21.5 -40 t37.5 -16.5q6 0 52.5 12.5t54.5 12.5q10 0 23.5 -13.5t13.5 -21.5q-2 -37 -129 -102.5t-148 -65.5q-43 0 -65 12q-47 37 -105.5 99.5t-58.5 74.5z" />
<glyph unicode="u" horiz-adv-x="1050" d="M90 432q0 78 46 187.5t119 193.5t138 84q12 0 28.5 -13.5t26 -26.5t7.5 -15q-20 -18 -49 -51t-77 -121t-48 -162q0 -98 57 -198.5t166 -100.5q45 0 126 27.5t118 58.5v397q0 33 -40 81t-81 63q10 43 26 47q23 2 35 0t71.5 -5.5t129.5 -3.5q18 0 60 5.5t46 5.5 q25 0 56 -21l-2 -20q0 -2 -64 -43q-27 -18 -41 -54t-14 -61v-457q0 -77 54 -77h1q6 0 49 19t53 19q27 0 27 -49q-2 -23 -70.5 -69.5t-101.5 -63.5q-37 -14 -88 -14q-35 0 -55.5 6t-29.5 22.5t-12 30t-6 47t-8 54.5q-219 -80 -276 -224q-172 66 -274.5 208.5t-102.5 293.5z " />
<glyph unicode="v" horiz-adv-x="1048" d="M145 670q0 14 2.5 20t7.5 9t17 12.5t27 23.5q156 156 172 156q8 0 73.5 -126t150.5 -294t124 -231q203 209 203 325q0 51 -34 87t-81 36q-6 0 -18.5 -2t-33 -4t-38.5 -4q0 2 -4 12t-4 17q0 12 8 28q27 16 93.5 59.5t113.5 73t53 29.5q55 0 89 -111.5t34 -156.5 q0 -80 -52.5 -166t-114 -142.5t-112.5 -104.5t-51 -62q0 -16 35 -42t76 -47.5t43 -23.5q0 -12 -23 -39h-475q-10 16 -6 41q2 2 40 16.5t70.5 32t32.5 33.5q0 8 -44 97t-108.5 208t-109.5 191q-22 36 -63 36h-2q-8 0 -37 -9t-39 -11q-14 14 -15 33z" />
<glyph unicode="w" horiz-adv-x="1660" d="M145 676q0 4 110 112.5t118 110.5q18 0 71.5 -101.5t140.5 -275.5t146 -276q29 25 117 140.5t88 154.5q0 37 -37 80t-74 43q-8 0 -26.5 -9.5t-24.5 -9.5l-33 -2q0 6 -7 21.5t-7 23.5q0 12 115.5 110.5t128.5 98.5q14 0 78.5 -128t146.5 -296t123 -231q31 20 121 139 t90 166q0 45 -30 74.5t-75 29.5q-8 0 -26.5 -7t-24.5 -7q-10 0 -16 7t-11.5 25.5t-7.5 24.5q18 12 117.5 93t151.5 104q110 -144 110 -250q0 -78 -35.5 -154.5t-88 -132t-104.5 -100.5t-89 -76t-37 -41q0 -25 72.5 -66.5t79.5 -60.5q-24 -28 -54 -28h-2q-8 0 -44 1t-126 3 t-233 2q-12 0 -25.5 7t-13.5 19q0 20 70.5 50t80.5 47l-153 301q-16 -12 -72.5 -81t-103.5 -130l-49 -64q0 -14 32.5 -38.5t69.5 -47t43 -28.5q0 -14 -14 -29l-435 -8q-35 0 -51 16v21q10 16 81 46.5t71 51.5q0 2 -44 86t-108.5 200.5t-109.5 186.5q-12 20 -45 41.5 t-54 21.5q-6 0 -25.5 -9t-27.5 -9q-29 0 -29 37z" />
<glyph unicode="x" horiz-adv-x="972" d="M119 94v8q1 128 67 216q68 92 244 155q-4 8 -30.5 51t-39 60.5t-38 46t-49 41t-50.5 12.5q-6 0 -33.5 -9t-36 -9t-14.5 6t-8 12t-5 18.5t-5 18.5q20 14 86.5 64.5t105.5 79t47 28.5q16 0 65.5 -71.5t112 -172t78.5 -123.5q53 16 87 30.5t67 48.5t33 79q0 43 -19.5 66.5 t-57.5 41t-48 25.5q10 45 27 47q27 4 69 5q21 0 39.5 0.5t35.5 -0.5q34 -1 65.5 -2t33.5 -1q70 0 70 -108q0 -121 -85 -192.5t-251 -131.5q20 -27 57 -88t69 -109.5t73 -98.5t87 -76q37 -21 75 -20q9 0 18 1q6 -4 20 -18q-10 -35 -61 -35h-236q-35 0 -156.5 195.5 t-148.5 195.5q-63 0 -107 -64.5t-44 -113.5q0 -121 182 -154q4 -2 11 -12t9 -12q-2 -10 -13 -22.5t-21 -12.5l-344 -2q-33 27 -33 106z" />
<glyph unicode="y" horiz-adv-x="946" d="M96 649q0 35 19 49q57 35 139 79t94 46q14 0 74.5 -121.5t135.5 -276.5t110 -206q70 57 114.5 151.5t44.5 170.5q0 57 -41 99t-94 42q-25 0 -65 -12q-15 15 -15 27t104 106q103 94 118 94q68 0 126 -117t58 -164q0 -94 -47 -188t-116 -169t-136.5 -144.5t-115.5 -139 t-48 -129.5v-13v-15t2 -14.5t6 -17.5t11.5 -17.5t19.5 -20.5q12 4 33.5 15.5t39 19.5t23.5 8q14 0 25.5 -13.5t11.5 -23.5q0 -14 -162 -176q-10 -8 -39 -8q-70 0 -114.5 70.5t-44.5 132.5q0 70 41 132t81.5 104t40.5 61q0 10 -98 196.5t-168 308.5q-14 27 -38.5 41.5 t-47 15.5t-44 1h-32.5q-8 8 -6 16z" />
<glyph unicode="z" horiz-adv-x="980" d="M209 -2l498 713q-12 4 -68 4q-78 0 -123 -10q-143 -37 -176 -62q-6 -4 -26.5 -21.5t-37 -28.5t-22.5 -11q-27 0 -45 22q16 31 61 125t68 127q14 20 57 14h553v-53l-461 -649q6 2 108.5 38t174.5 36h5q93 0 178 -76q87 -78 89 -150q0 -68 -49 -137t-123 -69q-33 0 -86 26 l-2 27q-2 8 18.5 38.5t20.5 39.5q0 51 -39 80.5t-74.5 35.5t-70.5 6q-92 0 -209 -47t-145 -47q-6 0 -31 3t-35 3q-8 8 -8 23z" />
<glyph unicode="{" horiz-adv-x="708" d="M96 440v58q49 16 82 49q10 10 18.5 20.5t14.5 18.5t11 21.5t8 21.5t5.5 23.5t3.5 22.5t2 25.5t1 23.5v27.5v26.5v352q0 104 88 179q72 63 168 63h86v-61h-86q-55 0 -107 -43q-23 -20 -35 -49t-14 -43.5t0 -62.5t2 -58v-320v-16q0 -47 -1 -69.5t-11 -54.5t-33 -58 q-37 -45 -86 -68q47 -8 86 -43q10 -8 17.5 -18.5t11.5 -18.5t8 -21.5t5 -20.5t2 -22.5t1 -21.5v-25.5v-25.5v-371q0 -59 2 -85.5t17.5 -65.5t48.5 -64q49 -37 96 -39l76 -2v-61h-76q-106 0 -178 63q-88 76 -88 187v385q0 10 1 41.5t0 42t-4 35t-9.5 37t-17.5 28.5t-28 29 q-41 27 -88 28z" />
<glyph unicode="|" horiz-adv-x="317" d="M96 -39v1520h97v-1520h-97z" />
<glyph unicode="}" horiz-adv-x="708" d="M57 -375l76 2q49 2 98 39q33 25 48.5 63t17.5 66.5t2 85.5v371v24.5v25.5t1 22.5t2 22.5t4 20.5t8 21.5t12.5 18.5t15.5 18.5q39 35 86 43q-51 25 -86 68q-8 12 -15.5 23t-12.5 21.5t-8 25t-4 22.5t-2 25.5t-1 24.5v27.5v28.5v320q0 14 1 48t0 49t-5 40t-15.5 42 t-29.5 34q-49 43 -107 43h-86v61h86q98 0 170 -63q86 -74 86 -179v-352v-20q0 -53 2 -81t16.5 -66t45.5 -64q31 -31 82 -49v-58q-45 -2 -86 -28q-16 -12 -28.5 -28.5t-18.5 -29t-9.5 -37t-4.5 -35t0 -43t1 -40.5v-385q0 -113 -86 -187q-74 -63 -180 -63h-76v61z" />
<glyph unicode="~" horiz-adv-x="991" d="M20 662q176 197 246 200q59 6 116.5 -21.5t88.5 -88.5q33 -63 106.5 -103.5t129.5 -30.5q23 4 83 44t78 63l13 -43q-184 -186 -254 -193q-55 -4 -112.5 24t-92.5 83q-29 68 -102.5 108.5t-133.5 30.5q-18 -2 -72.5 -46t-80.5 -73z" />
<glyph unicode="&#xa1;" horiz-adv-x="495" d="M35 -63l2 36q43 10 70.5 36t38 68t12.5 69.5t2 74.5v15v51v89v113.5t2 130t6 129t11 123t15.5 100.5t22.5 70.5t30.5 24.5t31 -24.5t22.5 -70.5t15.5 -100.5t11.5 -123t6 -129t2 -130v-113.5v-89v-51q0 -80 30.5 -157t98.5 -114v-28l-2 -3q-4 -4 -9 -8t-12 -4h-389 q-8 0 -11 2t-4 6t-3 7zM121 1257q0 37 26.5 60.5t65.5 23.5q45 0 90 -44t45 -89q0 -76 -88 -75q-47 0 -93 36.5t-46 87.5z" />
<glyph unicode="&#xa8;" horiz-adv-x="802" d="M279 1028q0 41 34.5 68.5t71.5 27.5q66 0 66 -57q0 -35 -34 -68.5t-69 -33.5q-31 0 -50 17t-19 46zM522 1028q0 41 35 68.5t72 27.5q67 0 67 -57q0 -35 -34.5 -68.5t-69.5 -33.5q-31 0 -50.5 17t-19.5 46z" />
<glyph unicode="&#xad;" horiz-adv-x="690" d="M0 322l61 88h428l-59 -88h-430z" />
<glyph unicode="&#xb0;" horiz-adv-x="552" d="M113 1174q0 57 38.5 97t96 40t97.5 -40t40 -97.5t-40 -96.5t-97 -39q-55 0 -95 40t-40 96zM166 1173.5q0 -34.5 23.5 -58t58.5 -23.5t59.5 24.5t24.5 57.5q0 35 -24.5 59t-59.5 24q-33 0 -57.5 -24.5t-24.5 -59z" />
<glyph unicode="&#xb8;" horiz-adv-x="950" d="M453 -369q0 2 120 160h15q6 -4 6 -14t-3 -22.5t-3 -14.5q0 -59 57 -66q37 -4 59.5 4.5t30.5 28t10.5 31.5t2.5 31q0 70 -46 90q-18 10 -45 10h-20q0 -4 -2 -10q-12 -39 -60 -39q-31 0 -30 20q0 29 24 49q8 8 15 11q-6 14 -6 28q-2 16 0 43l49 2q-2 -27 0 -53q0 -10 2 -18 q25 8 47 8q63 0 111.5 -45t50.5 -109q2 -61 -53.5 -107t-176.5 -28q-2 0 -37.5 4t-40.5 4q-10 0 -34 -6l-27 -6q-6 0 -10 3t-6 6t0 5z" />
<glyph unicode="&#xbf;" d="M84 10q-4 76 25.5 100.5t61.5 -6t32 -90.5q0 -6 -18.5 -23.5t-16.5 -25.5q14 -80 102 -137t183 -57q133 0 221 110.5t90 227.5q4 190 -59.5 292.5t-233.5 106.5q-125 2 -200.5 68.5t-90.5 158.5q-12 90 52.5 165t154.5 73h21.5t17.5 -1t12 -2t9.5 -3t9.5 -4t9 -7.5 t9 -8.5t11.5 -12t15.5 -15l-6 -46q-10 14 -15.5 18.5t-17.5 4.5t-25 4q-90 29 -151 -25.5t-49 -132.5q8 -72 90 -103.5t204 -18.5q199 20 318 -108t127 -363q6 -217 -134.5 -327t-338.5 -118q-182 -8 -297 73t-123 232zM264 1223q0 37 26.5 60.5t65.5 23.5q45 0 90.5 -44 t45.5 -89q0 -76 -89 -76q-47 0 -93 36.5t-46 88.5zM399 104q0 27 25 63t63 38q35 0 61.5 -31.5t26.5 -64.5q0 -18 -23.5 -55.5t-49.5 -37.5q-41 0 -72 23.5t-31 64.5z" />
<glyph unicode="&#xc0;" horiz-adv-x="1267" d="M158 338q0 221 102 455.5t328 396.5q-14 16 -31 16q-70 0 -114 -10t-61 -21.5t-47 -41t-48 -46.5q-10 4 -16.5 15.5t-4.5 19.5q12 82 8 108.5t-15 49.5t-11 41q0 10 9 18.5t17 6.5l377 -48h369q4 -4 8 -12t8 -10v-25q-14 -14 -59 -26q-8 -4 -14.5 -9.5t-9.5 -10.5t-4 -13 t-1 -12v-14.5v-12.5q0 -125 277 -879q14 -39 42.5 -61.5t43.5 -22.5q6 0 30.5 9.5t32.5 9.5q16 0 25.5 -13.5t9.5 -25.5q0 -4 -4 -11t-14.5 -17.5l-19.5 -19.5t-26.5 -25.5t-29.5 -28.5q-68 -68 -133 -68q-59 0 -93 49t-57.5 128t-40.5 106q-88 -31 -295 -123 q-55 -25 -142 -70t-139.5 -67.5t-76.5 -22.5q-180 0 -180 338zM406 424q-2 -164 92 -164q12 0 204.5 60.5t258.5 85.5q-43 213 -82 212q-10 0 -88 -18t-187.5 -47t-177.5 -51q-20 -6 -20 -70v-8zM451 756q0 -39 22.5 -65.5t63.5 -26.5q34 -1 321 71l-129 408 q-49 -6 -164.5 -145.5t-113.5 -241.5zM594 1532h141l92 -166h-68z" />
<glyph unicode="&#xc1;" horiz-adv-x="1267" d="M158 338q0 221 102 455.5t328 396.5q-14 16 -31 16q-70 0 -114 -10t-61 -21.5t-47 -41t-48 -46.5q-10 4 -16.5 15.5t-4.5 19.5q12 82 8 108.5t-15 49.5t-11 41q0 10 9 18.5t17 6.5l377 -48h369q4 -4 8 -12t8 -10v-25q-14 -14 -59 -26q-8 -4 -14.5 -9.5t-9.5 -10.5t-4 -13 t-1 -12v-14.5v-12.5q0 -125 277 -879q14 -39 42.5 -61.5t43.5 -22.5q6 0 30.5 9.5t32.5 9.5q16 0 25.5 -13.5t9.5 -25.5q0 -4 -4 -11t-14.5 -17.5l-19.5 -19.5t-26.5 -25.5t-29.5 -28.5q-68 -68 -133 -68q-59 0 -93 49t-57.5 128t-40.5 106q-88 -31 -295 -123 q-55 -25 -142 -70t-139.5 -67.5t-76.5 -22.5q-180 0 -180 338zM406 424q-2 -164 92 -164q12 0 204.5 60.5t258.5 85.5q-43 213 -82 212q-10 0 -88 -18t-187.5 -47t-177.5 -51q-20 -6 -20 -70v-8zM451 756q0 -39 22.5 -65.5t63.5 -26.5q34 -1 321 71l-129 408 q-49 -6 -164.5 -145.5t-113.5 -241.5zM585 1368l92 166h142l-166 -166h-68z" />
<glyph unicode="&#xc2;" horiz-adv-x="1267" d="M158 338q0 221 102 455.5t328 396.5q-14 16 -31 16q-70 0 -114 -10t-61 -21.5t-47 -41t-48 -46.5q-10 4 -16.5 15.5t-4.5 19.5q12 82 8 108.5t-15 49.5t-11 41q0 10 9 18.5t17 6.5l377 -48h369q4 -4 8 -12t8 -10v-25q-14 -14 -59 -26q-8 -4 -14.5 -9.5t-9.5 -10.5t-4 -13 t-1 -12v-14.5v-12.5q0 -125 277 -879q14 -39 42.5 -61.5t43.5 -22.5q6 0 30.5 9.5t32.5 9.5q16 0 25.5 -13.5t9.5 -25.5q0 -4 -4 -11t-14.5 -17.5l-19.5 -19.5t-26.5 -25.5t-29.5 -28.5q-68 -68 -133 -68q-59 0 -93 49t-57.5 128t-40.5 106q-88 -31 -295 -123 q-55 -25 -142 -70t-139.5 -67.5t-76.5 -22.5q-180 0 -180 338zM406 424q-2 -164 92 -164q12 0 204.5 60.5t258.5 85.5q-43 213 -82 212q-10 0 -88 -18t-187.5 -47t-177.5 -51q-20 -6 -20 -70v-8zM451 756q0 -39 22.5 -65.5t63.5 -26.5q34 -1 321 71l-129 408 q-49 -6 -164.5 -145.5t-113.5 -241.5zM567 1355l92 166h141l95 -166h-70l-94 95l-95 -95h-69z" />
<glyph unicode="&#xc3;" horiz-adv-x="1267" d="M158 338q0 221 102 455.5t328 396.5q-14 16 -31 16q-70 0 -114 -10t-61 -21.5t-47 -41t-48 -46.5q-10 4 -16.5 15.5t-4.5 19.5q12 82 8 108.5t-15 49.5t-11 41q0 10 9 18.5t17 6.5l377 -48h369q4 -4 8 -12t8 -10v-25q-14 -14 -59 -26q-8 -4 -14.5 -9.5t-9.5 -10.5t-4 -13 t-1 -12v-14.5v-12.5q0 -125 277 -879q14 -39 42.5 -61.5t43.5 -22.5q6 0 30.5 9.5t32.5 9.5q16 0 25.5 -13.5t9.5 -25.5q0 -4 -4 -11t-14.5 -17.5l-19.5 -19.5t-26.5 -25.5t-29.5 -28.5q-68 -68 -133 -68q-59 0 -93 49t-57.5 128t-40.5 106q-88 -31 -295 -123 q-55 -25 -142 -70t-139.5 -67.5t-76.5 -22.5q-180 0 -180 338zM406 424q-2 -164 92 -164q12 0 204.5 60.5t258.5 85.5q-43 213 -82 212q-10 0 -88 -18t-187.5 -47t-177.5 -51q-20 -6 -20 -70v-8zM451 756q0 -39 22.5 -65.5t63.5 -26.5q34 -1 321 71l-129 408 q-49 -6 -164.5 -145.5t-113.5 -241.5zM559 1380q2 53 40 92t87 41q25 2 64.5 -27.5t54.5 -29.5q55 2 92 51h8q4 -49 -24.5 -89t-73.5 -38q-39 2 -73 31.5t-52 29.5q-66 -2 -107 -61h-16z" />
<glyph unicode="&#xc4;" horiz-adv-x="1267" d="M158 338q0 221 102 455.5t328 396.5q-14 16 -31 16q-70 0 -114 -10t-61 -21.5t-47 -41t-48 -46.5q-10 4 -16.5 15.5t-4.5 19.5q12 82 8 108.5t-15 49.5t-11 41q0 10 9 18.5t17 6.5l377 -48h369q4 -4 8 -12t8 -10v-25q-14 -14 -59 -26q-8 -4 -14.5 -9.5t-9.5 -10.5t-4 -13 t-1 -12v-14.5v-12.5q0 -125 277 -879q14 -39 42.5 -61.5t43.5 -22.5q6 0 30.5 9.5t32.5 9.5q16 0 25.5 -13.5t9.5 -25.5q0 -4 -4 -11t-14.5 -17.5l-19.5 -19.5t-26.5 -25.5t-29.5 -28.5q-68 -68 -133 -68q-59 0 -93 49t-57.5 128t-40.5 106q-88 -31 -295 -123 q-55 -25 -142 -70t-139.5 -67.5t-76.5 -22.5q-180 0 -180 338zM406 424q-2 -164 92 -164q12 0 204.5 60.5t258.5 85.5q-43 213 -82 212q-10 0 -88 -18t-187.5 -47t-177.5 -51q-20 -6 -20 -70v-8zM451 756q0 -39 22.5 -65.5t63.5 -26.5q34 -1 321 71l-129 408 q-49 -6 -164.5 -145.5t-113.5 -241.5zM533 1440q0 41 34.5 68.5t71.5 27.5q66 0 66 -57q0 -35 -34 -68.5t-69 -33.5q-31 0 -50 17t-19 46zM776 1440q0 41 35 68.5t72 27.5q67 0 67 -57q0 -35 -34.5 -68.5t-69.5 -33.5q-31 0 -50.5 17t-19.5 46z" />
<glyph unicode="&#xc5;" horiz-adv-x="1267" d="M158 338q0 221 102 455.5t328 396.5q-14 16 -31 16q-70 0 -114 -10t-61 -21.5t-47 -41t-48 -46.5q-10 4 -16.5 15.5t-4.5 19.5q12 82 8 108.5t-15 49.5t-11 41q0 10 9 18.5t17 6.5l349 -43q-35 39 -35 90q0 57 39 97t96 40t97 -40t40 -97q0 -55 -39 -95h199q4 -4 8 -12 t8 -10v-25q-14 -14 -59 -26q-8 -4 -14.5 -9.5t-9.5 -10.5t-4 -13t-1 -12v-14.5v-12.5q0 -125 277 -879q14 -39 42.5 -61.5t43.5 -22.5q6 0 30.5 9.5t32.5 9.5q16 0 25.5 -13.5t9.5 -25.5q0 -4 -4 -11t-14.5 -17.5l-19.5 -19.5t-26.5 -25.5t-29.5 -28.5q-68 -68 -133 -68 q-59 0 -93 49t-57.5 128t-40.5 106q-88 -31 -295 -123q-55 -25 -142 -70t-139.5 -67.5t-76.5 -22.5q-180 0 -180 338zM406 424q-2 -164 92 -164q12 0 204.5 60.5t258.5 85.5q-43 213 -82 212q-10 0 -88 -18t-187.5 -47t-177.5 -51q-20 -6 -20 -70v-8zM451 756 q0 -39 22.5 -65.5t63.5 -26.5q34 -1 321 71l-129 408q-49 -6 -164.5 -145.5t-113.5 -241.5zM666 1392.5q0 -22.5 17 -40t39.5 -17.5t41 17.5t18.5 40t-18.5 41t-41 18.5t-39.5 -18.5t-17 -41z" />
<glyph unicode="&#xc6;" horiz-adv-x="2107" d="M158 338q0 221 102 455.5t328 396.5q-14 16 -31 16q-70 0 -114 -10t-61 -21.5t-47 -41t-48 -46.5q-10 4 -16.5 15.5t-4.5 19.5q12 82 8 108.5t-15 49.5t-11 41q0 10 9 18.5t17 6.5l377 -48h369q4 -4 8 -12t8 -10v-25q-14 -14 -59 -26q-29 -10 -29 -54q4 -4 4 -12 q10 -10 21 -10q4 0 70.5 44t167 87t184.5 43q100 0 100 -45q0 -10 -8 -17.5t-18.5 -16.5t-21.5 -48t-17 -102l-5 -9q-2 -6 -5 -9t-11 -3q-10 0 -25.5 22.5t-41 45t-64.5 22.5q-61 0 -170 -42t-141 -74q20 -84 82 -271q4 4 6 4t33.5 18.5t84 44t116 51.5t143 43t151.5 17h16 h27.5t31 -1t33 -3t27 -6t20.5 -11t5 -18q0 -4 -5 -12t-15.5 -22.5t-18.5 -26.5q-25 -41 -35 -80q-2 -8 -1 -47t-9 -47q-12 -20 -60 -21q-8 2 -12 13.5t-8 28t-8 22.5q-12 23 -43 43t-66 20q-41 0 -176 -35.5t-203 -76.5q68 -199 142 -400q12 -35 45 -63q8 2 42 23.5t50 27.5 q274 115 596 115q43 0 115.5 -15.5t72.5 -44.5q0 -18 -37 -59q-31 -31 -30 -100q0 -10 4 -37t2 -45q-14 -27 -39 -31q-14 0 -68 45q-145 96 -374 96q-84 0 -218 -47l-71 -71q-68 -68 -133 -68q-59 0 -93 49t-57.5 128t-40.5 106q-88 -31 -295 -123q-55 -25 -142 -70 t-139.5 -67.5t-76.5 -22.5q-180 0 -180 338zM406 424q-2 -164 92 -164q12 0 204.5 60.5t258.5 85.5q-43 213 -82 212q-10 0 -88 -18t-187.5 -47t-177.5 -51q-20 -6 -20 -70v-8zM451 756q0 -39 22.5 -65.5t63.5 -26.5q34 -1 321 71l-129 408q-49 -6 -164.5 -145.5 t-113.5 -241.5zM907 1090l4 6l-4 4q-2 -8 0 -10z" />
<glyph unicode="&#xc7;" horiz-adv-x="1222" d="M127 662q0 117 44 235.5t124 220t207 166t278 66.5q41 0 161 -20.5t187 -22.5q133 0 201 45q29 -15 29 -35q0 -6 -11.5 -16.5t-31 -25.5t-27.5 -24q-55 -53 -105 -110.5t-120 -142.5t-92 -111q-29 10 -29 37l16 57q14 57 15 61q0 76 -50.5 130.5t-115.5 58.5 q-84 6 -155.5 -25.5t-121 -86t-84 -125t-51 -141.5t-16.5 -136q0 -182 111.5 -345t328.5 -229q78 -23 101 -22q31 0 49 -2q84 0 156.5 28.5t113.5 57t45 28.5q16 0 22.5 -17t5.5 -34.5t-3 -19.5q-57 -66 -212 -124t-243 -63h-57q-281 0 -475.5 207t-194.5 480zM650 -379 q0 2 120 160h15q6 -4 6 -14t-3 -22.5t-3 -14.5q0 -59 57 -66q37 -4 59.5 4.5t30.5 28t10.5 31.5t2.5 31q0 70 -46 90q-18 10 -45 10h-20q0 -4 -2 -10q-12 -39 -60 -39q-31 0 -30 20q0 29 24 49q8 8 15 11q-6 14 -6 28q-2 16 0 43l49 2q-2 -27 0 -53q0 -10 2 -18q25 8 47 8 q63 0 111.5 -45t50.5 -109q2 -61 -53.5 -107t-176.5 -28q-2 0 -37.5 4t-40.5 4q-10 0 -34 -6l-27 -6q-6 0 -10 3t-6 6t0 5z" />
<glyph unicode="&#xc8;" horiz-adv-x="1251" d="M170 35q0 23 39 42t53 42q10 16 19.5 102t9.5 111v700q0 31 -8.5 96.5t-14.5 75.5q-6 8 -17 15.5t-27.5 16.5t-26.5 17v23q51 23 145 46.5t111 23.5h34q-8 -76 0 -160q10 -10 21 -10q4 0 70.5 43t167 87t184.5 44q100 0 100 -45q0 -10 -8 -17.5t-18.5 -16.5t-21.5 -48 t-17 -103q0 -2 -3.5 -8t-6.5 -9t-11 -3q-10 0 -25.5 22.5t-41 45t-64.5 22.5q-68 2 -186.5 -48t-130.5 -79q-4 -12 -6.5 -39t-3.5 -50.5t-1 -27.5q0 -76 7 -115q4 -4 14 -2q2 0 33.5 18.5t84 44.5t116 51.5t143.5 43t151 17.5h17h27.5t30.5 -1.5t32.5 -3.5t27 -6t20.5 -11 t5 -17q0 -4 -5 -12.5t-15.5 -23t-18.5 -26.5q-25 -41 -35 -80q-2 -8 -1 -47t-9 -47q-12 -20 -59 -20q-8 2 -12.5 13t-8.5 27.5t-8 22.5q-12 23 -43 43.5t-66 20.5q-66 0 -246 -56.5t-180 -111.5l7 -518q10 -10 18 -11q6 0 22.5 9.5t38 22.5t33.5 19q274 115 596 115 q43 0 116 -15t73 -44q0 -20 -37 -60q-31 -31 -31 -100q0 -10 4 -36.5t2 -45.5q-14 -27 -39 -31q-14 0 -67 45q-145 96 -375 97q-137 0 -295 -82q-41 -20 -70 -21q-8 0 -116.5 -1t-114.5 -1l-68 -4q0 2 -7 10.5t-7 18.5zM504 1534h141l92 -166h-68z" />
<glyph unicode="&#xc9;" horiz-adv-x="1251" d="M170 35q0 23 39 42t53 42q10 16 19.5 102t9.5 111v700q0 31 -8.5 96.5t-14.5 75.5q-6 8 -17 15.5t-27.5 16.5t-26.5 17v23q51 23 145 46.5t111 23.5h34q-8 -76 0 -160q10 -10 21 -10q4 0 70.5 43t167 87t184.5 44q100 0 100 -45q0 -10 -8 -17.5t-18.5 -16.5t-21.5 -48 t-17 -103q0 -2 -3.5 -8t-6.5 -9t-11 -3q-10 0 -25.5 22.5t-41 45t-64.5 22.5q-68 2 -186.5 -48t-130.5 -79q-4 -12 -6.5 -39t-3.5 -50.5t-1 -27.5q0 -76 7 -115q4 -4 14 -2q2 0 33.5 18.5t84 44.5t116 51.5t143.5 43t151 17.5h17h27.5t30.5 -1.5t32.5 -3.5t27 -6t20.5 -11 t5 -17q0 -4 -5 -12.5t-15.5 -23t-18.5 -26.5q-25 -41 -35 -80q-2 -8 -1 -47t-9 -47q-12 -20 -59 -20q-8 2 -12.5 13t-8.5 27.5t-8 22.5q-12 23 -43 43.5t-66 20.5q-66 0 -246 -56.5t-180 -111.5l7 -518q10 -10 18 -11q6 0 22.5 9.5t38 22.5t33.5 19q274 115 596 115 q43 0 116 -15t73 -44q0 -20 -37 -60q-31 -31 -31 -100q0 -10 4 -36.5t2 -45.5q-14 -27 -39 -31q-14 0 -67 45q-145 96 -375 97q-137 0 -295 -82q-41 -20 -70 -21q-8 0 -116.5 -1t-114.5 -1l-68 -4q0 2 -7 10.5t-7 18.5zM536 1368l92 166h142l-166 -166h-68z" />
<glyph unicode="&#xca;" horiz-adv-x="1251" d="M170 35q0 23 39 42t53 42q10 16 19.5 102t9.5 111v700q0 31 -8.5 96.5t-14.5 75.5q-6 8 -17 15.5t-27.5 16.5t-26.5 17v23q51 23 145 46.5t111 23.5h34q-8 -76 0 -160q10 -10 21 -10q4 0 70.5 43t167 87t184.5 44q100 0 100 -45q0 -10 -8 -17.5t-18.5 -16.5t-21.5 -48 t-17 -103q0 -2 -3.5 -8t-6.5 -9t-11 -3q-10 0 -25.5 22.5t-41 45t-64.5 22.5q-68 2 -186.5 -48t-130.5 -79q-4 -12 -6.5 -39t-3.5 -50.5t-1 -27.5q0 -76 7 -115q4 -4 14 -2q2 0 33.5 18.5t84 44.5t116 51.5t143.5 43t151 17.5h17h27.5t30.5 -1.5t32.5 -3.5t27 -6t20.5 -11 t5 -17q0 -4 -5 -12.5t-15.5 -23t-18.5 -26.5q-25 -41 -35 -80q-2 -8 -1 -47t-9 -47q-12 -20 -59 -20q-8 2 -12.5 13t-8.5 27.5t-8 22.5q-12 23 -43 43.5t-66 20.5q-66 0 -246 -56.5t-180 -111.5l7 -518q10 -10 18 -11q6 0 22.5 9.5t38 22.5t33.5 19q274 115 596 115 q43 0 116 -15t73 -44q0 -20 -37 -60q-31 -31 -31 -100q0 -10 4 -36.5t2 -45.5q-14 -27 -39 -31q-14 0 -67 45q-145 96 -375 97q-137 0 -295 -82q-41 -20 -70 -21q-8 0 -116.5 -1t-114.5 -1l-68 -4q0 2 -7 10.5t-7 18.5zM516 1355l92 166h141l95 -166h-70l-94 95l-95 -95h-69 z" />
<glyph unicode="&#xcb;" horiz-adv-x="1251" d="M170 35q0 23 39 42t53 42q10 16 19.5 102t9.5 111v700q0 31 -8.5 96.5t-14.5 75.5q-6 8 -17 15.5t-27.5 16.5t-26.5 17v23q51 23 145 46.5t111 23.5h34q-8 -76 0 -160q10 -10 21 -10q4 0 70.5 43t167 87t184.5 44q100 0 100 -45q0 -10 -8 -17.5t-18.5 -16.5t-21.5 -48 t-17 -103q0 -2 -3.5 -8t-6.5 -9t-11 -3q-10 0 -25.5 22.5t-41 45t-64.5 22.5q-68 2 -186.5 -48t-130.5 -79q-4 -12 -6.5 -39t-3.5 -50.5t-1 -27.5q0 -76 7 -115q4 -4 14 -2q2 0 33.5 18.5t84 44.5t116 51.5t143.5 43t151 17.5h17h27.5t30.5 -1.5t32.5 -3.5t27 -6t20.5 -11 t5 -17q0 -4 -5 -12.5t-15.5 -23t-18.5 -26.5q-25 -41 -35 -80q-2 -8 -1 -47t-9 -47q-12 -20 -59 -20q-8 2 -12.5 13t-8.5 27.5t-8 22.5q-12 23 -43 43.5t-66 20.5q-66 0 -246 -56.5t-180 -111.5l7 -518q10 -10 18 -11q6 0 22.5 9.5t38 22.5t33.5 19q274 115 596 115 q43 0 116 -15t73 -44q0 -20 -37 -60q-31 -31 -31 -100q0 -10 4 -36.5t2 -45.5q-14 -27 -39 -31q-14 0 -67 45q-145 96 -375 97q-137 0 -295 -82q-41 -20 -70 -21q-8 0 -116.5 -1t-114.5 -1l-68 -4q0 2 -7 10.5t-7 18.5zM525 1440q0 41 34.5 68.5t71.5 27.5q66 0 66 -57 q0 -35 -34 -68.5t-69 -33.5q-31 0 -50 17t-19 46zM768 1440q0 41 35 68.5t72 27.5q67 0 67 -57q0 -35 -34.5 -68.5t-69.5 -33.5q-31 0 -50.5 17t-19.5 46z" />
<glyph unicode="&#xcc;" horiz-adv-x="542" d="M190 10.5q0 24.5 28 36.5t40 33q23 35 29 75t6 91t4 78l6 430q0 88 -10 194q0 6 -2 58.5t-7 90.5t-20 58q-8 12 -41 33.5t-33 38.5q0 25 33 24h371q0 -2 6 -19.5t6 -25.5q-4 -4 -34.5 -22.5t-45.5 -38.5q-16 -23 -27.5 -134.5t-11.5 -174.5v-443q0 -147 21 -270 q4 -27 46 -55.5t42 -51.5q0 -8 -4 -18t-4 -12h-365q-33 0 -33 24.5zM314 1534h141l92 -166h-68z" />
<glyph unicode="&#xcd;" horiz-adv-x="542" d="M190 10.5q0 24.5 28 36.5t40 33q23 35 29 75t6 91t4 78l6 430q0 88 -10 194q0 6 -2 58.5t-7 90.5t-20 58q-8 12 -41 33.5t-33 38.5q0 25 33 24h371q0 -2 6 -19.5t6 -25.5q-4 -4 -34.5 -22.5t-45.5 -38.5q-16 -23 -27.5 -134.5t-11.5 -174.5v-443q0 -147 21 -270 q4 -27 46 -55.5t42 -51.5q0 -8 -4 -18t-4 -12h-365q-33 0 -33 24.5zM313 1368l92 166h142l-166 -166h-68z" />
<glyph unicode="&#xce;" horiz-adv-x="542" d="M190 10.5q0 24.5 28 36.5t40 33q23 35 29 75t6 91t4 78l6 430q0 88 -10 194q0 6 -2 58.5t-7 90.5t-20 58q-8 12 -41 33.5t-33 38.5q0 25 33 24h371q0 -2 6 -19.5t6 -25.5q-4 -4 -34.5 -22.5t-45.5 -38.5q-16 -23 -27.5 -134.5t-11.5 -174.5v-443q0 -147 21 -270 q4 -27 46 -55.5t42 -51.5q0 -8 -4 -18t-4 -12h-365q-33 0 -33 24.5zM244 1355l92 166h141l95 -166h-70l-94 95l-95 -95h-69z" />
<glyph unicode="&#xcf;" horiz-adv-x="542" d="M190 10.5q0 24.5 28 36.5t40 33q23 35 29 75t6 91t4 78l6 430q0 88 -10 194q0 6 -2 58.5t-7 90.5t-20 58q-8 12 -41 33.5t-33 38.5q0 25 33 24h371q0 -2 6 -19.5t6 -25.5q-4 -4 -34.5 -22.5t-45.5 -38.5q-16 -23 -27.5 -134.5t-11.5 -174.5v-443q0 -147 21 -270 q4 -27 46 -55.5t42 -51.5q0 -8 -4 -18t-4 -12h-365q-33 0 -33 24.5zM197 1440q0 41 34.5 68.5t71.5 27.5q66 0 66 -57q0 -35 -34 -68.5t-69 -33.5q-31 0 -50 17t-19 46zM440 1440q0 41 35 68.5t72 27.5q67 0 67 -57q0 -35 -34.5 -68.5t-69.5 -33.5q-31 0 -50.5 17t-19.5 46z " />
<glyph unicode="&#xd0;" horiz-adv-x="1355" d="M104 539v143h224l2 244l-17 8q-23 -10 -45 -31.5t-54 -59.5t-44 -52q-18 66 -18 100q0 39 88 122t88 93q0 25 -11.5 45t-30 34.5t-33.5 24t-32 15.5l-18 8l-2 31q35 10 135 38.5t153 43.5h27v-78l14 -8q188 111 349 110q264 -2 416.5 -179t152.5 -429 q0 -197 -61.5 -345.5t-204.5 -346.5q-12 -16 -28.5 -53t-27.5 -54q-14 -25 -19 -28t-24 14q-6 6 -17 21.5t-15 21.5q-90 23 -152 22l-680 -2q-16 6 -18 23q0 27 22 37q59 39 70 61q12 23 29 117l4 289h-222zM506 330q-2 -115 38 -154t158 -39q84 0 141.5 17.5t77 33 t72.5 64.5q98 92 151.5 231.5t55.5 266.5q0 61 -16.5 133.5t-51 153.5t-107.5 134.5t-171 53.5q-35 0 -111.5 -19.5t-95.5 -27.5q-123 -47 -127 -96.5t-6 -111t-2 -132v-97.5v-59h227v-143h-229z" />
<glyph unicode="&#xd1;" horiz-adv-x="1296" d="M182 35q0 8 29 27.5t57.5 50t28.5 67.5v852q0 47 -26.5 78t-53.5 46t-27 23.5t26 26t67 38t78.5 37.5t75.5 33.5t42 18.5q14 -14 17 -20q2 -20 1 -38t-2 -42.5t-1 -28.5v-22q0 -47 14 -64l16 -16q31 -31 56 -60q252 -291 364 -432q4 -4 29.5 -41t47 -59.5t44.5 -30.5 q37 49 74 148.5t37 152.5q0 25 -11.5 80t-35 127t-68.5 124t-103 52q-8 0 -22 -3t-23 -3q-20 0 -34 12l2 31q33 18 107.5 59t122.5 67t56 26q37 0 129.5 -155t98.5 -196q14 -115 14 -133q0 -74 -34 -148.5t-82 -137t-97 -122t-83 -125t-34 -122.5q0 -61 31 -96t121 -74v-49 h-289q-31 78 -27 133q4 43 18.5 96t27 86t12.5 31q0 14 -86 118.5t-221.5 264.5t-157.5 186q-16 -6 -18.5 -22.5t4 -43t6.5 -36.5v-807h-316zM559 1380q2 53 40 92t87 41q25 2 64.5 -27.5t54.5 -29.5q55 2 92 51h8q4 -49 -24.5 -89t-73.5 -38q-39 2 -73 31.5t-52 29.5 q-66 -2 -107 -61h-16z" />
<glyph unicode="&#xd2;" horiz-adv-x="1458" d="M170 643q0 285 214 485.5t495 200.5q152 0 280.5 -61.5t211.5 -161.5t130 -225t47 -254q0 -285 -202.5 -484.5t-477.5 -199.5q-287 0 -492.5 208.5t-205.5 491.5zM436 686q0 -70 16.5 -142.5t53.5 -145t91 -129t138 -91.5t185 -35q6 0 47 6.5t49 6.5q84 0 225 120.5 t137 192.5q0 8 10.5 23.5t10.5 19.5q16 72 16 131q2 221 -146.5 372.5t-377.5 151.5q-180 0 -317.5 -151.5t-137.5 -329.5zM773 1534h141l92 -166h-68z" />
<glyph unicode="&#xd3;" horiz-adv-x="1458" d="M170 643q0 285 214 485.5t495 200.5q152 0 280.5 -61.5t211.5 -161.5t130 -225t47 -254q0 -285 -202.5 -484.5t-477.5 -199.5q-287 0 -492.5 208.5t-205.5 491.5zM436 686q0 -70 16.5 -142.5t53.5 -145t91 -129t138 -91.5t185 -35q6 0 47 6.5t49 6.5q84 0 225 120.5 t137 192.5q0 8 10.5 23.5t10.5 19.5q16 72 16 131q2 221 -146.5 372.5t-377.5 151.5q-180 0 -317.5 -151.5t-137.5 -329.5zM762 1368l92 166h142l-166 -166h-68z" />
<glyph unicode="&#xd4;" horiz-adv-x="1458" d="M170 643q0 285 214 485.5t495 200.5q152 0 280.5 -61.5t211.5 -161.5t130 -225t47 -254q0 -285 -202.5 -484.5t-477.5 -199.5q-287 0 -492.5 208.5t-205.5 491.5zM436 686q0 -70 16.5 -142.5t53.5 -145t91 -129t138 -91.5t185 -35q6 0 47 6.5t49 6.5q84 0 225 120.5 t137 192.5q0 8 10.5 23.5t10.5 19.5q16 72 16 131q2 221 -146.5 372.5t-377.5 151.5q-180 0 -317.5 -151.5t-137.5 -329.5zM711 1355l92 166h141l95 -166h-70l-94 95l-95 -95h-69z" />
<glyph unicode="&#xd5;" horiz-adv-x="1458" d="M170 643q0 285 214 485.5t495 200.5q152 0 280.5 -61.5t211.5 -161.5t130 -225t47 -254q0 -285 -202.5 -484.5t-477.5 -199.5q-287 0 -492.5 208.5t-205.5 491.5zM436 686q0 -70 16.5 -142.5t53.5 -145t91 -129t138 -91.5t185 -35q6 0 47 6.5t49 6.5q84 0 225 120.5 t137 192.5q0 8 10.5 23.5t10.5 19.5q16 72 16 131q2 221 -146.5 372.5t-377.5 151.5q-180 0 -317.5 -151.5t-137.5 -329.5zM729 1380q2 53 40 92t87 41q25 2 64.5 -27.5t54.5 -29.5q55 2 92 51h8q4 -49 -24.5 -89t-73.5 -38q-39 2 -73 31.5t-52 29.5q-66 -2 -107 -61h-16z " />
<glyph unicode="&#xd6;" horiz-adv-x="1458" d="M170 643q0 285 214 485.5t495 200.5q152 0 280.5 -61.5t211.5 -161.5t130 -225t47 -254q0 -285 -202.5 -484.5t-477.5 -199.5q-287 0 -492.5 208.5t-205.5 491.5zM436 686q0 -70 16.5 -142.5t53.5 -145t91 -129t138 -91.5t185 -35q6 0 47 6.5t49 6.5q84 0 225 120.5 t137 192.5q0 8 10.5 23.5t10.5 19.5q16 72 16 131q2 221 -146.5 372.5t-377.5 151.5q-180 0 -317.5 -151.5t-137.5 -329.5zM689 1440q0 41 34.5 68.5t71.5 27.5q66 0 66 -57q0 -35 -34 -68.5t-69 -33.5q-31 0 -50 17t-19 46zM932 1440q0 41 35 68.5t72 27.5q67 0 67 -57 q0 -35 -34.5 -68.5t-69.5 -33.5q-31 0 -50.5 17t-19.5 46z" />
<glyph unicode="&#xd8;" horiz-adv-x="1458" d="M170 643q0 285 214 485.5t495 200.5q225 0 395 -131l137 156h92l-178 -201q106 -102 164.5 -241.5t58.5 -284.5q0 -285 -202.5 -484.5t-477.5 -199.5q-260 0 -458 178l-144 -162h-92l186 209q-190 203 -190 475zM436 686q0 -185 92 -328l648 732q-127 78 -285 77 q-180 0 -317.5 -151.5t-137.5 -329.5zM569 301q133 -158 351 -158q6 0 47 6.5t49 6.5q84 0 225 120.5t137 192.5q0 8 10.5 23.5t10.5 19.5q16 72 16 131q4 250 -182 406z" />
<glyph unicode="&#xd9;" horiz-adv-x="1529" d="M94 950q0 10 12.5 30.5t30 43.5t21.5 31q45 84 65 162q4 10 19.5 25t25.5 15q8 0 159 -3t159 -3h291q4 -2 8 -10l6 -12q-158 -139 -227.5 -264t-69.5 -269q0 -59 20.5 -139t60.5 -165t114.5 -143.5t166.5 -58.5q63 0 214 70t151 107v641q0 10 -10.5 68.5t-16.5 68.5 q-12 20 -46 39.5t-34 38.5q0 8 21 28h381q2 -2 10 -6t10 -8v-37q-35 -12 -66.5 -50t-31.5 -71q-10 -733 -10 -874q0 -78 61 -78q35 0 76 16q23 -8 23 -28q0 -23 -67 -66t-131.5 -74.5t-68.5 -31.5q-31 0 -59.5 18.5t-32.5 40.5q-8 39 -11 119t-5 92q-12 -8 -62.5 -39 t-76 -47t-68.5 -45t-77 -56.5t-62 -58.5q-29 -29 -66 -94q-223 88 -375.5 303t-152.5 410q0 260 196 510q-4 4 -22 4q-12 0 -66.5 -14.5t-77.5 -26.5q-37 -18 -104.5 -57t-115.5 -68t-52 -29q-20 0 -28.5 16.5t-8.5 28.5zM916 1534h141l92 -166h-68z" />
<glyph unicode="&#xda;" horiz-adv-x="1529" d="M94 950q0 10 12.5 30.5t30 43.5t21.5 31q45 84 65 162q4 10 19.5 25t25.5 15q8 0 159 -3t159 -3h291q4 -2 8 -10l6 -12q-158 -139 -227.5 -264t-69.5 -269q0 -59 20.5 -139t60.5 -165t114.5 -143.5t166.5 -58.5q63 0 214 70t151 107v641q0 10 -10.5 68.5t-16.5 68.5 q-12 20 -46 39.5t-34 38.5q0 8 21 28h381q2 -2 10 -6t10 -8v-37q-35 -12 -66.5 -50t-31.5 -71q-10 -733 -10 -874q0 -78 61 -78q35 0 76 16q23 -8 23 -28q0 -23 -67 -66t-131.5 -74.5t-68.5 -31.5q-31 0 -59.5 18.5t-32.5 40.5q-8 39 -11 119t-5 92q-12 -8 -62.5 -39 t-76 -47t-68.5 -45t-77 -56.5t-62 -58.5q-29 -29 -66 -94q-223 88 -375.5 303t-152.5 410q0 260 196 510q-4 4 -22 4q-12 0 -66.5 -14.5t-77.5 -26.5q-37 -18 -104.5 -57t-115.5 -68t-52 -29q-20 0 -28.5 16.5t-8.5 28.5zM938 1368l92 166h142l-166 -166h-68z" />
<glyph unicode="&#xdb;" horiz-adv-x="1529" d="M94 950q0 10 12.5 30.5t30 43.5t21.5 31q45 84 65 162q4 10 19.5 25t25.5 15q8 0 159 -3t159 -3h291q4 -2 8 -10l6 -12q-158 -139 -227.5 -264t-69.5 -269q0 -59 20.5 -139t60.5 -165t114.5 -143.5t166.5 -58.5q63 0 214 70t151 107v641q0 10 -10.5 68.5t-16.5 68.5 q-12 20 -46 39.5t-34 38.5q0 8 21 28h381q2 -2 10 -6t10 -8v-37q-35 -12 -66.5 -50t-31.5 -71q-10 -733 -10 -874q0 -78 61 -78q35 0 76 16q23 -8 23 -28q0 -23 -67 -66t-131.5 -74.5t-68.5 -31.5q-31 0 -59.5 18.5t-32.5 40.5q-8 39 -11 119t-5 92q-12 -8 -62.5 -39 t-76 -47t-68.5 -45t-77 -56.5t-62 -58.5q-29 -29 -66 -94q-223 88 -375.5 303t-152.5 410q0 260 196 510q-4 4 -22 4q-12 0 -66.5 -14.5t-77.5 -26.5q-37 -18 -104.5 -57t-115.5 -68t-52 -29q-20 0 -28.5 16.5t-8.5 28.5zM895 1355l92 166h141l95 -166h-70l-94 95l-95 -95 h-69z" />
<glyph unicode="&#xdc;" horiz-adv-x="1529" d="M94 950q0 10 12.5 30.5t30 43.5t21.5 31q45 84 65 162q4 10 19.5 25t25.5 15q8 0 159 -3t159 -3h291q4 -2 8 -10l6 -12q-158 -139 -227.5 -264t-69.5 -269q0 -59 20.5 -139t60.5 -165t114.5 -143.5t166.5 -58.5q63 0 214 70t151 107v641q0 10 -10.5 68.5t-16.5 68.5 q-12 20 -46 39.5t-34 38.5q0 8 21 28h381q2 -2 10 -6t10 -8v-37q-35 -12 -66.5 -50t-31.5 -71q-10 -733 -10 -874q0 -78 61 -78q35 0 76 16q23 -8 23 -28q0 -23 -67 -66t-131.5 -74.5t-68.5 -31.5q-31 0 -59.5 18.5t-32.5 40.5q-8 39 -11 119t-5 92q-12 -8 -62.5 -39 t-76 -47t-68.5 -45t-77 -56.5t-62 -58.5q-29 -29 -66 -94q-223 88 -375.5 303t-152.5 410q0 260 196 510q-4 4 -22 4q-12 0 -66.5 -14.5t-77.5 -26.5q-37 -18 -104.5 -57t-115.5 -68t-52 -29q-20 0 -28.5 16.5t-8.5 28.5zM877 1440q0 41 34.5 68.5t71.5 27.5q66 0 66 -57 q0 -35 -34 -68.5t-69 -33.5q-31 0 -50 17t-19 46zM1120 1440q0 41 35 68.5t72 27.5q67 0 67 -57q0 -35 -34.5 -68.5t-69.5 -33.5q-31 0 -50.5 17t-19.5 46z" />
<glyph unicode="&#xdd;" horiz-adv-x="1439" d="M139 985q0 31 21 41q92 47 194.5 129t161.5 138.5t66 56.5q12 0 31.5 -14.5t17.5 -26.5l-4 -6q-6 -8 -14.5 -20.5t-18.5 -30t-20.5 -39t-18.5 -44t-13 -50t-5 -54.5q0 -90 99 -311.5t144 -286.5q14 29 11 87t12 79q106 6 129 10q14 -8 17 -36.5t0 -92t-3 -80.5 q6 0 17 -14q135 213 202.5 364.5t67.5 305.5q0 53 -7 90t-15.5 50t-15.5 24.5t-7 17.5v53q41 20 55 21q4 0 44 -55.5t121 -142.5t171 -147q20 -14 20 -55q0 -27 -11 -35t-41.5 -10t-51.5 -8q-45 -14 -89 -55t-64.5 -69t-62.5 -98.5t-46 -76.5q-20 -35 -83 -131t-106 -168 t-75 -141q-6 -12 -8.5 -42t-2.5 -56.5v-57.5l3 -31v-78.5t3 -72.5t9 -70t15 -51.5t26.5 -38.5t40.5 -12l2 -31q2 -14 -60.5 -67.5t-68.5 -53.5q-4 0 -51.5 4t-71.5 4q-47 0 -126 -2t-140.5 -4t-65.5 -2q-23 0 -42 10.5t-21 24.5q0 12 14 31q4 2 105.5 27.5t129.5 45.5 q31 23 52 56q47 76 47 290q0 51 -21.5 105.5t-62.5 131.5t-58 116q-12 29 -127 245q-14 29 -52 110t-71.5 134t-80.5 94q-16 14 -54 23.5t-65 19t-27 29.5zM825 1368l92 166h142l-166 -166h-68z" />
<glyph unicode="&#xe0;" horiz-adv-x="886" d="M57 184q0 45 21.5 90t50.5 78t79 69t84 56.5t89 52t74 41.5q-10 18 -39 83t-55.5 91.5t-73.5 26.5q-55 0 -99.5 -31.5t-54.5 -31.5q-12 0 -25.5 7t-13.5 19q0 27 56 146q18 10 57 10h405q70 0 70 -43q0 -14 -13.5 -22.5t-30.5 -12.5t-30.5 -20.5t-13.5 -42.5 q0 -29 36 -120t79 -183.5t81.5 -172t38.5 -81.5q14 -35 66 -35q18 0 76 26q14 -29 14 -39q0 -39 -86 -102t-115 -63q-43 0 -70.5 31.5t-43 64.5t-25.5 33l-47 -31q-45 -33 -128 -65.5t-171 -32.5q-98 0 -170 50t-72 154zM270 236q0 -43 34 -76t79 -33q49 0 128 33.5t95 60.5 l-102 234h-21q-12 -10 -77.5 -54.5t-100.5 -83t-35 -81.5zM306 1122h141l92 -166h-68z" />
<glyph unicode="&#xe1;" horiz-adv-x="886" d="M57 184q0 45 21.5 90t50.5 78t79 69t84 56.5t89 52t74 41.5q-10 18 -39 83t-55.5 91.5t-73.5 26.5q-55 0 -99.5 -31.5t-54.5 -31.5q-12 0 -25.5 7t-13.5 19q0 27 56 146q18 10 57 10h405q70 0 70 -43q0 -14 -13.5 -22.5t-30.5 -12.5t-30.5 -20.5t-13.5 -42.5 q0 -29 36 -120t79 -183.5t81.5 -172t38.5 -81.5q14 -35 66 -35q18 0 76 26q14 -29 14 -39q0 -39 -86 -102t-115 -63q-43 0 -70.5 31.5t-43 64.5t-25.5 33l-47 -31q-45 -33 -128 -65.5t-171 -32.5q-98 0 -170 50t-72 154zM270 236q0 -43 34 -76t79 -33q49 0 128 33.5t95 60.5 l-102 234h-21q-12 -10 -77.5 -54.5t-100.5 -83t-35 -81.5zM278 956l92 166h142l-166 -166h-68z" />
<glyph unicode="&#xe2;" horiz-adv-x="886" d="M57 184q0 45 21.5 90t50.5 78t79 69t84 56.5t89 52t74 41.5q-10 18 -39 83t-55.5 91.5t-73.5 26.5q-55 0 -99.5 -31.5t-54.5 -31.5q-12 0 -25.5 7t-13.5 19q0 27 56 146q18 10 57 10h405q70 0 70 -43q0 -14 -13.5 -22.5t-30.5 -12.5t-30.5 -20.5t-13.5 -42.5 q0 -29 36 -120t79 -183.5t81.5 -172t38.5 -81.5q14 -35 66 -35q18 0 76 26q14 -29 14 -39q0 -39 -86 -102t-115 -63q-43 0 -70.5 31.5t-43 64.5t-25.5 33l-47 -31q-45 -33 -128 -65.5t-171 -32.5q-98 0 -170 50t-72 154zM207 956l92 166h141l95 -166h-70l-94 95l-95 -95h-69 zM270 236q0 -43 34 -76t79 -33q49 0 128 33.5t95 60.5l-102 234h-21q-12 -10 -77.5 -54.5t-100.5 -83t-35 -81.5z" />
<glyph unicode="&#xe3;" horiz-adv-x="886" d="M57 184q0 45 21.5 90t50.5 78t79 69t84 56.5t89 52t74 41.5q-10 18 -39 83t-55.5 91.5t-73.5 26.5q-55 0 -99.5 -31.5t-54.5 -31.5q-12 0 -25.5 7t-13.5 19q0 27 56 146q18 10 57 10h405q70 0 70 -43q0 -14 -13.5 -22.5t-30.5 -12.5t-30.5 -20.5t-13.5 -42.5 q0 -29 36 -120t79 -183.5t81.5 -172t38.5 -81.5q14 -35 66 -35q18 0 76 26q14 -29 14 -39q0 -39 -86 -102t-115 -63q-43 0 -70.5 31.5t-43 64.5t-25.5 33l-47 -31q-45 -33 -128 -65.5t-171 -32.5q-98 0 -170 50t-72 154zM246 991q2 53 40 92t87 41q25 2 64.5 -27.5 t54.5 -29.5q55 2 92 51h8q4 -49 -24.5 -89t-73.5 -38q-39 2 -73 31.5t-52 29.5q-66 -2 -107 -61h-16zM270 236q0 -43 34 -76t79 -33q49 0 128 33.5t95 60.5l-102 234h-21q-12 -10 -77.5 -54.5t-100.5 -83t-35 -81.5z" />
<glyph unicode="&#xe4;" horiz-adv-x="886" d="M57 184q0 45 21.5 90t50.5 78t79 69t84 56.5t89 52t74 41.5q-10 18 -39 83t-55.5 91.5t-73.5 26.5q-55 0 -99.5 -31.5t-54.5 -31.5q-12 0 -25.5 7t-13.5 19q0 27 56 146q18 10 57 10h405q70 0 70 -43q0 -14 -13.5 -22.5t-30.5 -12.5t-30.5 -20.5t-13.5 -42.5 q0 -29 36 -120t79 -183.5t81.5 -172t38.5 -81.5q14 -35 66 -35q18 0 76 26q14 -29 14 -39q0 -39 -86 -102t-115 -63q-43 0 -70.5 31.5t-43 64.5t-25.5 33l-47 -31q-45 -33 -128 -65.5t-171 -32.5q-98 0 -170 50t-72 154zM248 1028q0 41 34.5 68.5t71.5 27.5q66 0 66 -57 q0 -35 -34 -68.5t-69 -33.5q-31 0 -50 17t-19 46zM270 236q0 -43 34 -76t79 -33q49 0 128 33.5t95 60.5l-102 234h-21q-12 -10 -77.5 -54.5t-100.5 -83t-35 -81.5zM491 1028q0 41 35 68.5t72 27.5q67 0 67 -57q0 -35 -34.5 -68.5t-69.5 -33.5q-31 0 -50.5 17t-19.5 46z" />
<glyph unicode="&#xe5;" horiz-adv-x="886" d="M57 184q0 45 21.5 90t50.5 78t79 69t84 56.5t89 52t74 41.5q-10 18 -39 83t-55.5 91.5t-73.5 26.5q-55 0 -99.5 -31.5t-54.5 -31.5q-12 0 -25.5 7t-13.5 19q0 27 56 146q18 10 57 10h405q70 0 70 -43q0 -14 -13.5 -22.5t-30.5 -12.5t-30.5 -20.5t-13.5 -42.5 q0 -29 36 -120t79 -183.5t81.5 -172t38.5 -81.5q14 -35 66 -35q18 0 76 26q14 -29 14 -39q0 -39 -86 -102t-115 -63q-43 0 -70.5 31.5t-43 64.5t-25.5 33l-47 -31q-45 -33 -128 -65.5t-171 -32.5q-98 0 -170 50t-72 154zM270 236q0 -43 34 -76t79 -33q49 0 128 33.5t95 60.5 l-102 234h-21q-12 -10 -77.5 -54.5t-100.5 -83t-35 -81.5zM276 1133q0 57 39 97t96.5 40t97.5 -40t40 -97.5t-40 -96.5t-97 -39q-55 0 -95.5 40t-40.5 96zM354 1132.5q0 -22.5 17.5 -40t40 -17.5t41 17.5t18.5 40t-18.5 41t-41 18.5t-40 -18.5t-17.5 -41z" />
<glyph unicode="&#xe6;" horiz-adv-x="1374" d="M57 184q0 45 21.5 90t50.5 78t79 69t84 56.5t89 52t74 41.5q-10 18 -39 83t-55.5 91.5t-73.5 26.5q-55 0 -99.5 -31.5t-54.5 -31.5q-12 0 -25.5 7t-13.5 19q0 27 56 146q18 10 57 10h405q70 0 70 -43q0 -14 -13.5 -22.5t-30.5 -12.5t-30.5 -20.5t-13.5 -42.5 q0 -31 37 -125q59 115 159.5 187.5t227.5 72.5q98 0 204.5 -65.5t149.5 -192.5q-174 -70 -229 -109q-49 -31 -181.5 -138.5t-132.5 -121.5q0 -45 88.5 -82t145.5 -37q76 0 142.5 31t102 67.5t61.5 67.5t32 31q29 0 29 -33q0 -45 -68 -137q-92 -125 -174 -167t-205 -42 q-90 0 -168 33q-25 -10 -31 -10q-43 0 -70.5 31.5t-43 64.5t-25.5 33l-47 -31q-45 -33 -128 -65.5t-171 -32.5q-98 0 -170 50t-72 154zM270 236q0 -43 34 -76t79 -33t118.5 30.5t98.5 57.5q-10 27 -18 61l-78 179h-21q-12 -10 -77.5 -54.5t-100.5 -83t-35 -81.5zM733 485 q-6 -133 45 -137q6 6 90 79t130 130t46 102q-4 27 -4 29q-10 29 -30.5 56.5t-42.5 29.5q-12 2 -58.5 -14.5t-64.5 -28.5q-111 -82 -111 -246z" />
<glyph unicode="&#xe7;" horiz-adv-x="950" d="M184 401q0 215 131 369t338 152q4 0 86 -9.5t92 -7.5q23 0 78.5 12.5t57.5 12.5q12 0 22 -7.5t13.5 -14.5t1.5 -11q0 -8 -43 -64.5t-122 -154.5t-106 -133h-31q-12 8 -13 29.5t5 49t6 33.5q-2 66 -36.5 106t-90.5 40q-98 0 -168.5 -89t-70.5 -182q-2 -135 100.5 -245.5 t239.5 -110.5h57q57 0 128 49t118 99l47 49q10 0 20.5 -10.5t10.5 -20.5q0 -12 -40 -87t-71 -108q-145 -162 -350 -161q-174 -2 -292 125t-118 290zM453 -369q0 2 120 160h15q6 -4 6 -14t-3 -22.5t-3 -14.5q0 -59 57 -66q37 -4 59.5 4.5t30.5 28t10.5 31.5t2.5 31 q0 70 -46 90q-18 10 -45 10h-20q0 -4 -2 -10q-12 -39 -60 -39q-31 0 -30 20q0 29 24 49q8 8 15 11q-6 14 -6 28q-2 16 0 43l49 2q-2 -27 0 -53q0 -10 2 -18q25 8 47 8q63 0 111.5 -45t50.5 -109q2 -61 -53.5 -107t-176.5 -28q-2 0 -37.5 4t-40.5 4q-10 0 -34 -6l-27 -6 q-6 0 -10 3t-6 6t0 5z" />
<glyph unicode="&#xe8;" horiz-adv-x="841" d="M78 383q0 184 127 343t319 159q98 0 205 -65.5t150 -192.5q-170 -70 -230 -109q-51 -35 -182 -140.5t-131 -119.5q0 -39 60.5 -68.5t111.5 -40t61 -10.5q76 0 142.5 31t102.5 67.5t61.5 67.5t31.5 31q29 0 29 -33q0 -45 -68 -137q-92 -125 -174 -167t-205 -42 q-186 2 -298.5 126t-112.5 300zM240 485q0 -133 45 -137q6 6 90 79t130 130t46 102q-4 27 -4 29q-10 29 -30.5 56.5t-43.5 29.5q-12 2 -58 -13.5t-65 -29.5q-49 -37 -74.5 -85t-29.5 -78.5t-6 -82.5zM388 1122h141l92 -166h-68z" />
<glyph unicode="&#xe9;" horiz-adv-x="841" d="M78 383q0 184 127 343t319 159q98 0 205 -65.5t150 -192.5q-170 -70 -230 -109q-51 -35 -182 -140.5t-131 -119.5q0 -39 60.5 -68.5t111.5 -40t61 -10.5q76 0 142.5 31t102.5 67.5t61.5 67.5t31.5 31q29 0 29 -33q0 -45 -68 -137q-92 -125 -174 -167t-205 -42 q-186 2 -298.5 126t-112.5 300zM240 485q0 -133 45 -137q6 6 90 79t130 130t46 102q-4 27 -4 29q-10 29 -30.5 56.5t-43.5 29.5q-12 2 -58 -13.5t-65 -29.5q-49 -37 -74.5 -85t-29.5 -78.5t-6 -82.5zM411 956l92 166h142l-166 -166h-68z" />
<glyph unicode="&#xea;" horiz-adv-x="841" d="M78 383q0 184 127 343t319 159q98 0 205 -65.5t150 -192.5q-170 -70 -230 -109q-51 -35 -182 -140.5t-131 -119.5q0 -39 60.5 -68.5t111.5 -40t61 -10.5q76 0 142.5 31t102.5 67.5t61.5 67.5t31.5 31q29 0 29 -33q0 -45 -68 -137q-92 -125 -174 -167t-205 -42 q-186 2 -298.5 126t-112.5 300zM240 485q0 -133 45 -137q6 6 90 79t130 130t46 102q-4 27 -4 29q-10 29 -30.5 56.5t-43.5 29.5q-12 2 -58 -13.5t-65 -29.5q-49 -37 -74.5 -85t-29.5 -78.5t-6 -82.5zM350 956l92 166h141l95 -166h-70l-94 95l-95 -95h-69z" />
<glyph unicode="&#xeb;" horiz-adv-x="841" d="M78 383q0 184 127 343t319 159q98 0 205 -65.5t150 -192.5q-170 -70 -230 -109q-51 -35 -182 -140.5t-131 -119.5q0 -39 60.5 -68.5t111.5 -40t61 -10.5q76 0 142.5 31t102.5 67.5t61.5 67.5t31.5 31q29 0 29 -33q0 -45 -68 -137q-92 -125 -174 -167t-205 -42 q-186 2 -298.5 126t-112.5 300zM240 485q0 -133 45 -137q6 6 90 79t130 130t46 102q-4 27 -4 29q-10 29 -30.5 56.5t-43.5 29.5q-12 2 -58 -13.5t-65 -29.5q-49 -37 -74.5 -85t-29.5 -78.5t-6 -82.5zM310 1028q0 41 34.5 68.5t71.5 27.5q66 0 66 -57q0 -35 -34 -68.5 t-69 -33.5q-31 0 -50 17t-19 46zM553 1028q0 41 35 68.5t72 27.5q67 0 67 -57q0 -35 -34.5 -68.5t-69.5 -33.5q-31 0 -50.5 17t-19.5 46z" />
<glyph unicode="&#xec;" horiz-adv-x="495" d="M121 14l2 37q43 10 70.5 36t38 68t12.5 69.5t2 74.5v14q0 20 1 67.5t1 53.5q0 59 -17 228q-2 27 -50 55t-52 33q6 25 127 70.5t141 45.5q33 0 33 -96v-571q0 -51 24.5 -84t96.5 -72v-29l-2 -4q-2 -4 -6 -7t-11 -3h-393q-8 0 -11 2t-4 6t-3 6zM173 1122h141l92 -166h-68z " />
<glyph unicode="&#xed;" horiz-adv-x="495" d="M121 14l2 37q43 10 70.5 36t38 68t12.5 69.5t2 74.5v14q0 20 1 67.5t1 53.5q0 59 -17 228q-2 27 -50 55t-52 33q6 25 127 70.5t141 45.5q33 0 33 -96v-571q0 -51 24.5 -84t96.5 -72v-29l-2 -4q-2 -4 -6 -7t-11 -3h-393q-8 0 -11 2t-4 6t-3 6zM176 956l92 166h142 l-166 -166h-68z" />
<glyph unicode="&#xee;" horiz-adv-x="495" d="M121 14l2 37q43 10 70.5 36t38 68t12.5 69.5t2 74.5v14q0 20 1 67.5t1 53.5q0 59 -17 228q-2 27 -50 55t-52 33q6 25 127 70.5t141 45.5q33 0 33 -96v-571q0 -51 24.5 -84t96.5 -72v-29l-2 -4q-2 -4 -6 -7t-11 -3h-393q-8 0 -11 2t-4 6t-3 6zM166 956l92 166h141l95 -166 h-70l-94 95l-95 -95h-69z" />
<glyph unicode="&#xef;" horiz-adv-x="495" d="M121 14l2 37q43 10 70.5 36t38 68t12.5 69.5t2 74.5v14q0 20 1 67.5t1 53.5q0 59 -17 228q-2 27 -50 55t-52 33q6 25 127 70.5t141 45.5q33 0 33 -96v-571q0 -51 24.5 -84t96.5 -72v-29l-2 -4q-2 -4 -6 -7t-11 -3h-393q-8 0 -11 2t-4 6t-3 6zM136 1028q0 41 34.5 68.5 t71.5 27.5q66 0 66 -57q0 -35 -34 -68.5t-69 -33.5q-31 0 -50 17t-19 46zM379 1028q0 41 35 68.5t72 27.5q67 0 67 -57q0 -35 -34.5 -68.5t-69.5 -33.5q-31 0 -50.5 17t-19.5 46z" />
<glyph unicode="&#xf1;" horiz-adv-x="1083" d="M209 8v23q104 82 106 149l7 406q0 14 1 42.5t1 45t-3.5 39t-13.5 41.5q-12 23 -53 52.5t-41 35.5q0 8 4 16t4 14h314q14 -14 14 -22q0 -6 -11.5 -26.5t-13.5 -28.5v-2q2 -2 11 -2q2 0 23.5 13t52 32.5t48.5 27.5q63 27 162 27q166 0 251 -118t85 -261q0 -137 -153 -389 q33 -25 133 -80v-29l-21 -20h-311q-8 8 -8 22l39 54q37 53 74.5 148t37.5 202q0 51 -8 97t-28.5 94t-64.5 76t-106 28q-74 0 -146.5 -33t-86.5 -90q-8 -31 -10 -81t-1 -92t1 -46v-34v-38t1 -39t3 -42t6 -37.5t10 -39t15.5 -34t21.5 -31.5t27.5 -23.5t35.5 -17.5v-23l-20 -20 h-369q-4 2 -10 6t-10 8zM502 991q2 53 40 92t87 41q25 2 64.5 -27.5t54.5 -29.5q55 2 92 51h8q4 -49 -24.5 -89t-73.5 -38q-39 2 -73 31.5t-52 29.5q-66 -2 -107 -61h-16z" />
<glyph unicode="&#xf2;" d="M152 397q0 117 69.5 255.5t204.5 205.5q6 2 17.5 10.5t20.5 14.5t17 6q6 0 12.5 -6t13.5 -15.5t13 -13.5q-121 -113 -149.5 -166t-28.5 -147q0 -90 39 -192.5t125 -185.5t196.5 -83t175 74.5t64.5 175.5q0 78 -31.5 171t-105.5 171t-166 78q-123 0 -186 -113l-27 2 q-20 20 -27 31q68 111 157 171t177 60q150 0 267.5 -131t117.5 -278q0 -231 -139 -378t-356 -147q-186 0 -328.5 121t-142.5 309zM563 430q0 41 31 64.5t72 23.5q27 0 50 -37t23 -55q0 -33 -26.5 -64.5t-61.5 -31.5q-39 2 -63.5 37.5t-24.5 62.5zM582 1122h141l92 -166h-68z " />
<glyph unicode="&#xf3;" d="M152 397q0 117 69.5 255.5t204.5 205.5q6 2 17.5 10.5t20.5 14.5t17 6q6 0 12.5 -6t13.5 -15.5t13 -13.5q-121 -113 -149.5 -166t-28.5 -147q0 -90 39 -192.5t125 -185.5t196.5 -83t175 74.5t64.5 175.5q0 78 -31.5 171t-105.5 171t-166 78q-123 0 -186 -113l-27 2 q-20 20 -27 31q68 111 157 171t177 60q150 0 267.5 -131t117.5 -278q0 -231 -139 -378t-356 -147q-186 0 -328.5 121t-142.5 309zM483 956l92 166h142l-166 -166h-68zM563 430q0 41 31 64.5t72 23.5q27 0 50 -37t23 -55q0 -33 -26.5 -64.5t-61.5 -31.5q-39 2 -63.5 37.5 t-24.5 62.5z" />
<glyph unicode="&#xf4;" d="M152 397q0 117 69.5 255.5t204.5 205.5q6 2 17.5 10.5t20.5 14.5t17 6q6 0 12.5 -6t13.5 -15.5t13 -13.5q-121 -113 -149.5 -166t-28.5 -147q0 -90 39 -192.5t125 -185.5t196.5 -83t175 74.5t64.5 175.5q0 78 -31.5 171t-105.5 171t-166 78q-123 0 -186 -113l-27 2 q-20 20 -27 31q68 111 157 171t177 60q150 0 267.5 -131t117.5 -278q0 -231 -139 -378t-356 -147q-186 0 -328.5 121t-142.5 309zM545 956l92 166h141l95 -166h-70l-94 95l-95 -95h-69zM563 430q0 41 31 64.5t72 23.5q27 0 50 -37t23 -55q0 -33 -26.5 -64.5t-61.5 -31.5 q-39 2 -63.5 37.5t-24.5 62.5z" />
<glyph unicode="&#xf5;" d="M152 397q0 117 69.5 255.5t204.5 205.5q6 2 17.5 10.5t20.5 14.5t17 6q6 0 12.5 -6t13.5 -15.5t13 -13.5q-121 -113 -149.5 -166t-28.5 -147q0 -90 39 -192.5t125 -185.5t196.5 -83t175 74.5t64.5 175.5q0 78 -31.5 171t-105.5 171t-166 78q-123 0 -186 -113l-27 2 q-20 20 -27 31q68 111 157 171t177 60q150 0 267.5 -131t117.5 -278q0 -231 -139 -378t-356 -147q-186 0 -328.5 121t-142.5 309zM502 991q2 53 40 92t87 41q25 2 64.5 -27.5t54.5 -29.5q55 2 92 51h8q4 -49 -24.5 -89t-73.5 -38q-39 2 -73 31.5t-52 29.5q-66 -2 -107 -61 h-16zM563 430q0 41 31 64.5t72 23.5q27 0 50 -37t23 -55q0 -33 -26.5 -64.5t-61.5 -31.5q-39 2 -63.5 37.5t-24.5 62.5z" />
<glyph unicode="&#xf6;" d="M152 397q0 117 69.5 255.5t204.5 205.5q6 2 17.5 10.5t20.5 14.5t17 6q6 0 12.5 -6t13.5 -15.5t13 -13.5q-121 -113 -149.5 -166t-28.5 -147q0 -90 39 -192.5t125 -185.5t196.5 -83t175 74.5t64.5 175.5q0 78 -31.5 171t-105.5 171t-166 78q-123 0 -186 -113l-27 2 q-20 20 -27 31q68 111 157 171t177 60q150 0 267.5 -131t117.5 -278q0 -231 -139 -378t-356 -147q-186 0 -328.5 121t-142.5 309zM463 1028q0 41 34.5 68.5t71.5 27.5q66 0 66 -57q0 -35 -34 -68.5t-69 -33.5q-31 0 -50 17t-19 46zM563 430q0 41 31 64.5t72 23.5 q27 0 50 -37t23 -55q0 -33 -26.5 -64.5t-61.5 -31.5q-39 2 -63.5 37.5t-24.5 62.5zM706 1028q0 41 35 68.5t72 27.5q67 0 67 -57q0 -35 -34.5 -68.5t-69.5 -33.5q-31 0 -50.5 17t-19.5 46z" />
<glyph unicode="&#xf8;" d="M152 397q0 117 69.5 255.5t204.5 205.5q6 2 17.5 10.5t20.5 14.5t17 6q6 0 12.5 -6t13.5 -15.5t13 -13.5q-121 -113 -149.5 -166t-28.5 -147q0 -90 39 -192.5t125 -185.5t196.5 -83t175 74.5t64.5 175.5q0 78 -31.5 171t-105.5 171t-166 78q-123 0 -186 -113l-27 2 q-20 20 -27 31q68 111 157 171t177 60q113 0 217 -84l115 127h92l-156 -176q117 -127 117 -276q0 -231 -139 -378t-356 -147q-154 0 -277 82l-80 -90h-92l119 131q-141 121 -141 307zM563 430q0 41 31 64.5t72 23.5q27 0 50 -37t23 -55q0 -33 -26.5 -64.5t-61.5 -31.5 q-39 2 -63.5 37.5t-24.5 62.5z" />
<glyph unicode="&#xf9;" horiz-adv-x="1050" d="M90 432q0 78 46 187.5t119 193.5t138 84q12 0 28.5 -13.5t26 -26.5t7.5 -15q-20 -18 -49 -51t-77 -121t-48 -162q0 -98 57 -198.5t166 -100.5q45 0 126 27.5t118 58.5v397q0 33 -40 81t-81 63q10 43 26 47q23 2 35 0t71.5 -5.5t129.5 -3.5q18 0 60 5.5t46 5.5 q25 0 56 -21l-2 -20q0 -2 -64 -43q-27 -18 -41 -54t-14 -61v-457q0 -78 55 -77q6 0 49 19t53 19q27 0 27 -49q-2 -23 -70.5 -69.5t-101.5 -63.5q-37 -14 -88 -14q-35 0 -55.5 6t-29.5 22.5t-12 30t-6 47t-8 54.5q-219 -80 -276 -224q-172 66 -274.5 208.5t-102.5 293.5z M490 1122h141l92 -166h-68z" />
<glyph unicode="&#xfa;" horiz-adv-x="1050" d="M90 432q0 78 46 187.5t119 193.5t138 84q12 0 28.5 -13.5t26 -26.5t7.5 -15q-20 -18 -49 -51t-77 -121t-48 -162q0 -98 57 -198.5t166 -100.5q45 0 126 27.5t118 58.5v397q0 33 -40 81t-81 63q10 43 26 47q23 2 35 0t71.5 -5.5t129.5 -3.5q18 0 60 5.5t46 5.5 q25 0 56 -21l-2 -20q0 -2 -64 -43q-27 -18 -41 -54t-14 -61v-457q0 -78 55 -77q6 0 49 19t53 19q27 0 27 -49q-2 -23 -70.5 -69.5t-101.5 -63.5q-37 -14 -88 -14q-35 0 -55.5 6t-29.5 22.5t-12 30t-6 47t-8 54.5q-219 -80 -276 -224q-172 66 -274.5 208.5t-102.5 293.5z M483 956l92 166h142l-166 -166h-68z" />
<glyph unicode="&#xfb;" horiz-adv-x="1050" d="M90 432q0 78 46 187.5t119 193.5t138 84q12 0 28.5 -13.5t26 -26.5t7.5 -15q-20 -18 -49 -51t-77 -121t-48 -162q0 -98 57 -198.5t166 -100.5q45 0 126 27.5t118 58.5v397q0 33 -40 81t-81 63q10 43 26 47q23 2 35 0t71.5 -5.5t129.5 -3.5q18 0 60 5.5t46 5.5 q25 0 56 -21l-2 -20q0 -2 -64 -43q-27 -18 -41 -54t-14 -61v-457q0 -78 55 -77q6 0 49 19t53 19q27 0 27 -49q-2 -23 -70.5 -69.5t-101.5 -63.5q-37 -14 -88 -14q-35 0 -55.5 6t-29.5 22.5t-12 30t-6 47t-8 54.5q-219 -80 -276 -224q-172 66 -274.5 208.5t-102.5 293.5z M402 956l92 166h141l95 -166h-70l-94 95l-95 -95h-69z" />
<glyph unicode="&#xfc;" horiz-adv-x="1050" d="M90 432q0 78 46 187.5t119 193.5t138 84q12 0 28.5 -13.5t26 -26.5t7.5 -15q-20 -18 -49 -51t-77 -121t-48 -162q0 -98 57 -198.5t166 -100.5q45 0 126 27.5t118 58.5v397q0 33 -40 81t-81 63q10 43 26 47q23 2 35 0t71.5 -5.5t129.5 -3.5q18 0 60 5.5t46 5.5 q25 0 56 -21l-2 -20q0 -2 -64 -43q-27 -18 -41 -54t-14 -61v-457q0 -78 55 -77q6 0 49 19t53 19q27 0 27 -49q-2 -23 -70.5 -69.5t-101.5 -63.5q-37 -14 -88 -14q-35 0 -55.5 6t-29.5 22.5t-12 30t-6 47t-8 54.5q-219 -80 -276 -224q-172 66 -274.5 208.5t-102.5 293.5z M474 1028q0 41 34.5 68.5t71.5 27.5q66 0 66 -57q0 -35 -34 -68.5t-69 -33.5q-31 0 -50 17t-19 46zM717 1028q0 41 35 68.5t72 27.5q67 0 67 -57q0 -35 -34.5 -68.5t-69.5 -33.5q-31 0 -50.5 17t-19.5 46z" />
<glyph unicode="&#xfd;" horiz-adv-x="946" d="M96 649q0 35 19 49q57 35 139 79t94 46q14 0 74.5 -121.5t135.5 -276.5t110 -206q70 57 114.5 151.5t44.5 170.5q0 57 -41 99t-94 42q-25 0 -65 -12q-14 14 -14.5 26.5t103 106.5t118.5 94q68 0 126 -117t58 -164q0 -94 -47 -188t-116 -169t-136.5 -144.5t-115.5 -139 t-48 -129.5v-13v-15t2 -14.5t6 -17.5t11.5 -17.5t19.5 -20.5q12 4 33.5 15.5t39 19.5t23.5 8q14 0 25.5 -13.5t11.5 -23.5q0 -14 -162 -176q-10 -8 -39 -8q-70 0 -114.5 70.5t-44.5 132.5q0 70 41 132t81.5 104t40.5 61q0 10 -98 196.5t-168 308.5q-14 27 -38.5 41.5 t-47 15.5t-44 1h-32.5q-8 8 -6 16zM471 979l92 166h142l-166 -166h-68z" />
<glyph unicode="&#xff;" horiz-adv-x="946" d="M96 649q0 35 19 49q57 35 139 79t94 46q14 0 74.5 -121.5t135.5 -276.5t110 -206q70 57 114.5 151.5t44.5 170.5q0 57 -41 99t-94 42q-25 0 -65 -12q-14 14 -14.5 26.5t103 106.5t118.5 94q68 0 126 -117t58 -164q0 -94 -47 -188t-116 -169t-136.5 -144.5t-115.5 -139 t-48 -129.5v-13v-15t2 -14.5t6 -17.5t11.5 -17.5t19.5 -20.5q12 4 33.5 15.5t39 19.5t23.5 8q14 0 25.5 -13.5t11.5 -23.5q0 -14 -162 -176q-10 -8 -39 -8q-70 0 -114.5 70.5t-44.5 132.5q0 70 41 132t81.5 104t40.5 61q0 10 -98 196.5t-168 308.5q-14 27 -38.5 41.5 t-47 15.5t-44 1h-32.5q-8 8 -6 16zM359 1028q0 41 34.5 68.5t71.5 27.5q66 0 66 -57q0 -35 -34 -68.5t-69 -33.5q-31 0 -50 17t-19 46zM602 1028q0 41 35 68.5t72 27.5q67 0 67 -57q0 -35 -34.5 -68.5t-69.5 -33.5q-31 0 -50.5 17t-19.5 46z" />
<glyph unicode="&#x152;" horiz-adv-x="2347" d="M170 643q0 285 214 485.5t495 200.5q199 0 362 -106q0 -2 2 -2q25 -18 27 -21l76 49q76 47 168 86t174 39q100 0 100 -45q0 -10 -8 -17t-18.5 -16.5t-21.5 -48.5t-18 -102l-2 -6q-4 -8 -7 -11.5t-11 -3.5q-10 0 -25.5 22.5t-41 45t-64.5 22.5q-88 0 -236 -69 q138 -137 189 -332q264 143 467 141h16h27.5t31 -1t32.5 -3t26.5 -6t20.5 -11t5 -18q0 -4 -5 -12t-15 -22.5t-19 -26.5q-25 -41 -34 -80q-2 -8 -1 -47t-10 -47q-12 -20 -59 -21q-8 2 -12 13.5t-8.5 28t-8.5 22.5q-12 23 -42.5 43t-65.5 20q-31 0 -139.5 -26.5t-186.5 -59.5 q4 -49 4 -73q0 -184 -94 -344q264 102 567 102q43 0 116 -15.5t73 -43.5q0 -18 -37 -60q-31 -31 -31 -100q0 -10 4 -37t2 -45q-14 -27 -39 -31q-14 0 -67 45q-145 96 -375 97q-137 0 -295 -82q-41 -20 -69 -21q-6 0 -11 2q-188 -152 -424 -151q-287 0 -492.5 208.5 t-205.5 491.5zM436 686q0 -70 16.5 -142.5t53.5 -145t91 -129t138 -91.5t185 -35q6 0 47 6.5t49 6.5q84 0 225 120.5t137 192.5q0 8 10.5 23.5t10.5 19.5q16 72 16 131q2 221 -146.5 372.5t-377.5 151.5q-180 0 -317.5 -151.5t-137.5 -329.5zM1200 1141l4 6l-4 4 q-2 -8 0 -10z" />
<glyph unicode="&#x153;" horiz-adv-x="1779" d="M152 397q0 117 69.5 255.5t204.5 205.5q6 2 17.5 10.5t20.5 14.5t17 6q6 0 12.5 -6t13.5 -15.5t13 -13.5q-121 -113 -149.5 -166t-28.5 -147q0 -90 39 -192.5t125 -185.5t196.5 -83t175 74.5t64.5 175.5q0 78 -31.5 171t-105.5 171t-166 78q-123 0 -186 -113l-27 2 q-20 20 -27 31q68 111 157 171t177 60q94 0 180 -57.5t142 -145.5q133 186 340 187q98 0 204.5 -65.5t149.5 -192.5q-170 -70 -229 -109q-51 -35 -182.5 -140.5t-131.5 -119.5q0 -39 60.5 -68.5t112 -40t61.5 -10.5q76 0 142.5 31t102 67.5t61.5 67.5t32 31q28 0 28 -33 q0 -45 -67 -137q-92 -125 -174 -167t-205 -42q-117 0 -207 52t-143 141q-139 -182 -387 -183q-186 0 -328.5 121t-142.5 309zM563 430q0 41 31 64.5t72 23.5q27 0 50 -37t23 -55q0 -33 -26.5 -64.5t-61.5 -31.5q-39 2 -63.5 37.5t-24.5 62.5zM1102 429q10 -77 53 -81 q6 6 90 79t130 130t46 102q-4 27 -4 29q-10 29 -30.5 56.5t-43.5 29.5q-12 2 -57 -14.5t-65 -28.5q-63 -41 -96 -133t-23 -169z" />
<glyph unicode="&#x178;" horiz-adv-x="1439" d="M139 985q0 31 21 41q92 47 194.5 129t161.5 138.5t66 56.5q12 0 31.5 -14.5t17.5 -26.5l-4 -6q-6 -8 -14.5 -20.5t-18.5 -30t-20.5 -39t-18.5 -44t-13 -50t-5 -54.5q0 -90 99 -311.5t144 -286.5q14 29 11 87t12 79q106 6 129 10q14 -8 17 -36.5t0 -92t-3 -80.5 q6 0 17 -14q135 213 202.5 364.5t67.5 305.5q0 53 -7 90t-15.5 50t-15.5 24.5t-7 17.5v53q41 20 55 21q4 0 44 -55.5t121 -142.5t171 -147q20 -14 20 -55q0 -27 -11 -35t-41.5 -10t-51.5 -8q-45 -14 -89 -55t-64.5 -69t-62.5 -98.5t-46 -76.5q-20 -35 -83 -131t-106 -168 t-75 -141q-6 -12 -8.5 -42t-2.5 -56.5v-57.5l3 -31v-78.5t3 -72.5t9 -70t15 -51.5t26.5 -38.5t40.5 -12l2 -31q2 -14 -60.5 -67.5t-68.5 -53.5q-4 0 -51.5 4t-71.5 4q-47 0 -126 -2t-140.5 -4t-65.5 -2q-23 0 -42 10.5t-21 24.5q0 12 14 31q4 2 105.5 27.5t129.5 45.5 q31 23 52 56q47 76 47 290q0 51 -21.5 105.5t-62.5 131.5t-58 116q-12 29 -127 245q-14 29 -52 110t-71.5 134t-80.5 94q-16 14 -54 23.5t-65 19t-27 29.5zM705 1440q0 41 34.5 68.5t71.5 27.5q66 0 66 -57q0 -35 -34 -68.5t-69 -33.5q-31 0 -50 17t-19 46zM948 1440 q0 41 35 68.5t72 27.5q67 0 67 -57q0 -35 -34.5 -68.5t-69.5 -33.5q-31 0 -50.5 17t-19.5 46z" />
<glyph unicode="&#x2dc;" horiz-adv-x="837" d="M86 1108q2 53 40 92t87 41q25 2 64.5 -27.5t54.5 -29.5q55 2 92 51h8q4 -49 -24.5 -89t-73.5 -38q-39 2 -73 31.5t-52 29.5q-66 -2 -107 -61h-16z" />
<glyph unicode="&#x2000;" horiz-adv-x="785" />
<glyph unicode="&#x2001;" horiz-adv-x="1571" />
<glyph unicode="&#x2002;" horiz-adv-x="785" />
<glyph unicode="&#x2003;" horiz-adv-x="1571" />
<glyph unicode="&#x2004;" horiz-adv-x="523" />
<glyph unicode="&#x2005;" horiz-adv-x="392" />
<glyph unicode="&#x2006;" horiz-adv-x="261" />
<glyph unicode="&#x2007;" horiz-adv-x="261" />
<glyph unicode="&#x2008;" horiz-adv-x="196" />
<glyph unicode="&#x2009;" horiz-adv-x="314" />
<glyph unicode="&#x200a;" horiz-adv-x="87" />
<glyph unicode="&#x2010;" horiz-adv-x="690" d="M0 322l61 88h428l-59 -88h-430z" />
<glyph unicode="&#x2011;" horiz-adv-x="690" d="M0 322l61 88h428l-59 -88h-430z" />
<glyph unicode="&#x2012;" horiz-adv-x="690" d="M0 322l61 88h428l-59 -88h-430z" />
<glyph unicode="&#x2013;" horiz-adv-x="872" d="M0 322l61 88h613l-62 -88h-612z" />
<glyph unicode="&#x2014;" horiz-adv-x="1327" d="M0 322l61 88h994l-58 -88h-997z" />
<glyph unicode="&#x2018;" horiz-adv-x="495" d="M49 1165q0 16 3 45t17.5 75t37 84t66.5 65.5t101 27.5q-104 -104 -114 -215q14 12 51 13q39 0 65.5 -24t26.5 -60q0 -51 -46 -88t-91 -37q-59 0 -88 35.5t-29 78.5z" />
<glyph unicode="&#x2019;" horiz-adv-x="495" d="M110 1370q0 51 46.5 88t91.5 37q59 0 87.5 -36t28.5 -79q0 -16 -3 -45t-17.5 -75t-37 -84t-66.5 -65.5t-101 -27.5q105 104 115 215q-14 -12 -51 -12q-39 0 -66 23.5t-27 60.5z" />
<glyph unicode="&#x201c;" horiz-adv-x="788" d="M49 1165q0 16 3 45t17.5 75t37 84t66.5 65.5t101 27.5q-104 -104 -114 -215q14 12 51 13q39 0 65.5 -24t26.5 -60q0 -51 -46 -88t-91 -37q-59 0 -88 35.5t-29 78.5zM346 1226q0 16 3 45t17.5 75t37 84t66.5 65.5t101 27.5q-104 -104 -114 -215q14 12 51 13q39 0 65.5 -24 t26.5 -60q0 -51 -46 -88t-91 -37q-59 0 -88 35.5t-29 78.5z" />
<glyph unicode="&#x201d;" horiz-adv-x="737" d="M110 1370q0 51 46.5 88t91.5 37q59 0 87.5 -36t28.5 -79q0 -16 -3 -45t-17.5 -75t-37 -84t-66.5 -65.5t-101 -27.5q105 104 115 215q-14 -12 -51 -12q-39 0 -66 23.5t-27 60.5zM366 1227q0 51 46.5 88t91.5 37q59 0 87.5 -36t28.5 -79q0 -16 -3 -45t-17.5 -75t-37 -84 t-66.5 -65.5t-101 -27.5q105 104 115 215q-14 -12 -51 -12q-39 0 -66 23.5t-27 60.5z" />
<glyph unicode="&#x2022;" horiz-adv-x="798" d="M246 631q0 57 39 97t96 40t97 -40t40 -97.5t-40 -96t-97 -38.5q-55 0 -95 39.5t-40 95.5z" />
<glyph unicode="&#x2026;" horiz-adv-x="1167" d="M100 80q0 51 46.5 88t93.5 37q88 0 88 -76q0 -45 -45 -89t-90 -44q-39 0 -66 23.5t-27 60.5zM407 80q0 51 46.5 88t93.5 37q88 0 88 -76q0 -45 -45 -89t-90 -44q-39 0 -66 23.5t-27 60.5zM725 80q0 51 46.5 88t93.5 37q88 0 88 -76q0 -45 -45 -89t-90 -44q-39 0 -66 23.5 t-27 60.5z" />
<glyph unicode="&#x202f;" horiz-adv-x="314" />
<glyph unicode="&#x205f;" horiz-adv-x="392" />
<glyph unicode="&#x25fc;" horiz-adv-x="890" d="M0 0v891h891v-891h-891z" />
</font>
</defs>
</svg>
